# This file uses centimeters as units for non-parametric coordinates.

mtllib Bed.mtl
g default
v -2.817517 0.122539 5.250352
v 0.017517 0.122539 5.250352
v -2.817517 1.477461 5.250352
v 0.017517 1.477461 5.250352
v -2.817517 1.477461 -0.050352
v 0.017517 1.477461 -0.050352
v -2.817517 0.122539 -0.050352
v 0.017517 0.122539 -0.050352
v -2.697597 1.577461 5.026135
v -0.102403 1.577461 5.026135
v -0.102403 1.577461 0.173865
v -2.697597 1.577461 0.173865
v -2.847485 1.577461 5.306383
v 0.047485 1.577461 5.306383
v 0.047485 1.577461 -0.106383
v -2.847485 1.577461 -0.106383
v -2.888356 1.777461 5.382800
v 0.088356 1.777461 5.382800
v 0.088356 1.777461 -0.182800
v -2.888356 1.777461 -0.182800
v -2.829917 1.877461 5.273537
v 0.029917 1.877461 5.273537
v 0.029917 1.877461 -0.073537
v -2.829917 1.877461 -0.073537
v -2.817517 1.477461 2.927032
v -2.697597 1.577461 2.899366
v -2.847485 1.577461 2.933946
v -2.888356 1.777461 2.943375
v -2.829917 1.838422 3.265245
v 0.029917 1.838422 3.265245
v 0.088356 1.777461 2.943375
v 0.047485 1.577461 2.933946
v -0.102403 1.577461 2.899366
v 0.017517 1.477461 2.927032
v 0.017517 0.122539 2.927032
v -2.817517 0.122539 2.927032
v -2.814497 2.016500 3.245933
v 0.014497 2.016500 3.245933
v 0.014497 1.977461 0.075071
v -2.814497 1.977461 0.075071
v -2.817517 0.246513 5.250352
v 0.017517 0.246513 5.250352
v 0.017517 0.246513 2.927032
v 0.017517 0.246513 -0.050352
v -2.817517 0.246513 -0.050352
v -2.817517 0.246513 2.927032
v -2.817517 1.373200 -0.050352
v 0.017517 1.373200 -0.050352
v 0.017517 1.373200 2.927032
v 0.017517 1.373200 5.250352
v -2.817517 1.373200 5.250352
v -2.817517 1.373200 2.927032
v -0.057847 0.122539 5.250352
v -0.057846 0.122539 2.927032
v -0.057847 0.122539 -0.050352
v -0.057846 0.246513 -0.050352
v -0.057847 1.373200 -0.050352
v -0.057847 1.477461 -0.050352
v -0.171391 1.577461 0.173865
v -0.029472 1.577461 -0.106383
v 0.009226 1.777461 -0.182800
v -0.046106 1.877461 -0.073537
v -0.060706 1.977461 0.075071
v -0.060706 2.016500 3.245933
v -0.046106 1.838422 3.265245
v -0.046106 1.877461 5.273537
v 0.009226 1.777461 5.382800
v -0.029472 1.577461 5.306383
v -0.171391 1.577461 5.026135
v -0.057847 1.477461 5.250352
v -0.057846 1.373200 5.250352
v -0.057847 0.246513 5.250352
v -2.655782 0.122539 5.250352
v -2.655781 0.122539 2.927032
v -2.655782 0.122539 -0.050352
v -2.655781 0.246513 -0.050352
v -2.655782 1.373200 -0.050352
v -2.655782 1.477461 -0.050352
v -2.549544 1.577461 0.173865
v -2.682331 1.577461 -0.106383
v -2.718538 1.777461 -0.182800
v -2.666768 1.877461 -0.073537
v -2.653107 1.977461 0.075071
v -2.653107 2.016500 3.245933
v -2.666768 1.838422 3.265245
v -2.666768 1.877461 5.273537
v -2.718538 1.777461 5.382800
v -2.682331 1.577461 5.306383
v -2.549544 1.577461 5.026135
v -2.655782 1.477461 5.250352
v -2.655781 1.373200 5.250352
v -2.655782 0.246513 5.250352
v -2.817517 0.122539 2.300299
v -2.655781 0.122539 2.300299
v -0.057846 0.122539 2.300299
v 0.017517 0.122539 2.300299
v 0.017517 0.246513 2.300299
v 0.017517 1.373200 2.300299
v 0.017517 1.477461 2.300299
v -0.102403 1.577461 2.325653
v 0.047485 1.577461 2.293963
v 0.088356 1.777461 2.285322
v 0.029917 1.846640 2.562438
v 0.014497 2.008282 2.578473
v -0.060706 2.008282 2.578473
v -2.653107 2.008282 2.578473
v -2.814497 2.008282 2.578473
v -2.829917 1.846640 2.562438
v -2.888356 1.777461 2.285322
v -2.847485 1.577461 2.293963
v -2.697597 1.577461 2.325653
v -2.817517 1.477461 2.300299
v -2.817517 1.373200 2.300299
v -2.817517 0.246513 2.300299
v -2.817517 1.477461 4.999547
v -2.697597 1.577461 4.796548
v -2.847485 1.577461 5.050276
v -2.888356 1.777461 5.119462
v -2.829917 1.873247 5.056740
v -2.666768 1.873247 5.056740
v -0.046106 1.873247 5.056740
v 0.029917 1.873247 5.056740
v 0.088356 1.777461 5.119462
v 0.047485 1.577461 5.050276
v -0.102403 1.577461 4.796548
v 0.017517 1.477461 4.999547
v 0.017517 1.373200 4.999547
v 0.017517 0.246513 4.999547
v 0.017517 0.122539 4.999547
v -0.057847 0.122539 4.999547
v -2.655782 0.122539 4.999547
v -2.817517 0.122539 4.999547
v -2.817517 0.246513 4.999547
v -2.817517 1.373200 4.999547
vt 0.495164 0.637801
vt 0.495164 0.475180
vt 0.713930 0.745629
vt 0.713930 0.675001
vt 0.715808 0.675001
vt 0.715808 0.745629
vt 0.546432 0.058176
vt 0.456095 0.058176
vt 0.456095 0.048620
vt 0.546432 0.048620
vt 0.498601 0.475180
vt 0.498601 0.637801
vt 0.833820 0.475180
vt 0.951357 0.023885
vt 0.904327 0.044835
vt 0.904327 0.034651
vt 0.951357 0.012524
vt 0.225035 0.773734
vt 0.225035 0.663350
vt 0.226463 0.663350
vt 0.226463 0.773734
vt 0.280891 0.773734
vt 0.280891 0.663350
vt 0.308656 0.663350
vt 0.308656 0.773734
vt 0.451800 0.778352
vt 0.451800 0.946073
vt 0.233201 0.986791
vt 0.233183 0.839983
vt 0.830382 0.637801
vt 0.787407 0.745629
vt 0.553227 0.012524
vt 0.364258 0.663350
vt 0.234438 0.839983
vt 0.234457 0.986791
vt 0.364258 0.773734
vt 0.547424 0.034651
vt 0.787407 0.675001
vt 0.830382 0.475180
vt 0.845164 0.048620
vt 0.696506 0.475180
vt 0.696506 0.637801
vt 0.845164 0.058176
vt 0.731362 0.941192
vt 0.737641 0.941192
vt 0.737641 0.987844
vt 0.731362 0.987841
vt 0.629653 0.637801
vt 0.629653 0.475180
vt 0.149772 0.637801
vt 0.149772 0.475180
vt 0.216625 0.475180
vt 0.216625 0.637801
vt 0.505124 0.637801
vt 0.505124 0.475180
vt 0.341154 0.475180
vt 0.341154 0.637801
vt 0.495164 0.457286
vt 0.498601 0.457286
vt 0.505124 0.457286
vt 0.629653 0.457286
vt 0.696506 0.457286
vt 0.830382 0.457286
vt 0.845164 0.387590
vt 0.546432 0.387590
vt 0.456095 0.387590
vt 0.149772 0.457286
vt 0.216625 0.457286
vt 0.823932 0.675001
vt 0.451147 0.034651
vt 0.081588 0.773734
vt 0.081588 0.663350
vt 0.246966 0.846758
vt 0.954062 0.941240
vt 0.954062 0.987906
vt 0.246372 0.980016
vt 0.444684 0.946073
vt 0.109353 0.663350
vt 0.109353 0.773734
vt 0.445829 0.012524
vt 0.823932 0.745629
vt 0.341154 0.457286
vt 0.833820 0.652849
vt 0.830382 0.652849
vt 0.546432 0.408097
vt 0.845164 0.408097
vt 0.456095 0.408097
vt 0.629653 0.652849
vt 0.696506 0.652849
vt 0.897074 0.675001
vt 0.090046 0.034651
vt 0.225035 0.828926
vt 0.226463 0.828926
vt 0.315049 0.872167
vt 0.967536 0.987912
vt 0.967536 0.941242
vt 0.444684 0.778352
vt 0.267573 0.807380
vt 0.090046 0.044835
vt 0.505124 0.652849
vt 0.495164 0.652849
vt 0.498601 0.652849
vt 0.117272 0.408097
vt 0.117272 0.387589
vt 0.117272 0.058176
vt 0.117272 0.048620
vt 0.216625 0.652849
vt 0.341154 0.652849
vt 0.149772 0.652849
vt 0.898952 0.745629
vt 0.008421 0.457286
vt 0.043016 0.023885
vt 0.297036 0.811915
vt 0.365685 0.828926
vt 0.314407 0.954608
vt 0.737641 0.766199
vt 0.731362 0.766200
vt 0.954062 0.766232
vt 0.967536 0.766239
vt 0.313137 0.954608
vt 0.364258 0.828926
vt 0.093208 0.811915
vt 0.043016 0.012524
vt 0.008421 0.475180
vt 0.897074 0.745629
vt 0.008421 0.637801
vt 0.008421 0.652849
vt 0.355152 0.652849
vt 0.525228 0.745629
vt 0.445829 0.439892
vt 0.122671 0.807380
vt 0.161072 0.663350
vt 0.697087 0.778361
vt 0.697087 0.946062
vt 0.712358 0.946064
vt 0.712358 0.778363
vt 0.161072 0.773734
vt 0.161485 0.826600
vt 0.451147 0.417765
vt 0.525228 0.675001
vt 0.355152 0.637801
vt 0.355152 0.475180
vt 0.355152 0.457286
vt 0.881315 0.058176
vt 0.015896 0.475180
vt 0.881315 0.048620
vt 0.881315 0.387590
vt 0.015896 0.457286
vt 0.881315 0.408097
vt 0.015896 0.637801
vt 0.015896 0.652849
vt 0.547424 0.417765
vt 0.561753 0.675001
vt 0.561753 0.745629
vt 0.553227 0.439892
vt 0.228759 0.826600
vt 0.229172 0.773734
vt 0.229172 0.663350
vt 0.022882 0.663350
vt 0.712358 0.966354
vt 0.697087 0.966358
vt 0.451800 0.966371
vt 0.444684 0.966372
vt 0.380355 0.954608
vt 0.022882 0.773734
vt 0.022882 0.828926
vt 0.166885 0.828926
vt 0.166885 0.773734
vt 0.865799 0.417765
vt 0.908378 0.439892
vt 0.629788 0.675001
vt 0.629788 0.745629
vt 0.347677 0.637801
vt 0.347677 0.652849
vt 0.347677 0.475180
vt 0.347677 0.457286
vt 0.973832 0.637801
vt 0.833820 0.637801
vt 0.378482 0.872167
vt 0.316305 0.872167
vt 0.089542 0.954608
vt 0.087630 0.872167
vt 0.973832 0.652849
vt 0.973832 0.475180
vt 0.973832 0.457286
vt 0.833820 0.457286
vt 0.171006 0.839983
vt 0.170988 0.986791
vt 0.719372 0.745629
vt 0.719372 0.675001
vt 0.448002 0.675001
vt 0.448002 0.745629
vt 0.637436 0.745629
vt 0.637436 0.675001
vt 0.452086 0.675001
vt 0.452086 0.745629
vt 0.633352 0.675001
vt 0.633352 0.745629
vt 0.898952 0.675001
vt 0.975446 0.675001
vt 0.975446 0.745629
vt 0.908378 0.012524
vt 0.865799 0.034651
vt 0.090046 0.395909
vt 0.043016 0.415511
vt 0.951357 0.415511
vt 0.904327 0.395909
vt 0.090046 0.417765
vt 0.043016 0.439892
vt 0.904327 0.417765
vt 0.951357 0.439892
vt 0.166885 0.663350
vt 0.025986 0.663350
vt 0.025986 0.773734
vt 0.025986 0.828926
vt 0.163781 0.773734
vt 0.163781 0.828926
vt 0.163781 0.663350
vt 0.365685 0.663350
vt 0.423835 0.663350
vt 0.365685 0.773734
vt 0.423835 0.773734
vt 0.423835 0.828926
vt 0.156308 0.980017
vt 0.155713 0.846758
vt 0.168241 0.839983
vt 0.168223 0.986791
vt 0.084865 0.872167
vt 0.086738 0.954608
vn 0.000000 0.000000 1.000000
vn 0.000000 0.000000 1.000000
vn 0.000000 0.000000 1.000000
vn 0.000000 0.000000 1.000000
vn -0.000000 0.999924 -0.012311
vn -0.000000 0.999924 -0.012311
vn -0.000000 0.999924 -0.012311
vn -0.000000 0.999924 -0.012311
vn -0.000000 0.000000 -1.000000
vn 0.000000 0.000000 -1.000000
vn 0.000000 0.000000 -1.000000
vn 0.000000 0.000000 -1.000000
vn -0.000000 -1.000000 0.000000
vn -0.000000 -1.000000 -0.000000
vn 0.000000 -1.000000 0.000000
vn 0.000000 -1.000000 0.000000
vn 1.000000 0.000000 0.000000
vn 1.000000 -0.000000 0.000000
vn 1.000000 0.000000 0.000000
vn 1.000000 0.000000 0.000000
vn -1.000000 0.000000 0.000000
vn -1.000000 0.000000 0.000000
vn -1.000000 0.000000 0.000000
vn -1.000000 0.000000 0.000000
vn 0.000000 0.913285 0.407322
vn 0.000000 0.913285 0.407322
vn 0.000000 0.913285 0.407322
vn 0.000000 0.913285 0.407322
vn 0.640436 0.768012 0.000000
vn 0.640436 0.768012 0.000000
vn 0.640436 0.768011 0.000000
vn 0.640436 0.768011 0.000000
vn 0.000000 0.913285 -0.407322
vn 0.000000 0.913285 -0.407322
vn 0.000000 0.913285 -0.407322
vn 0.000000 0.913285 -0.407322
vn -0.640436 0.768011 0.000000
vn -0.640436 0.768011 0.000000
vn -0.640436 0.768012 0.000000
vn -0.640436 0.768012 0.000000
vn 0.000000 -1.000000 0.000000
vn 0.000000 -1.000000 0.000000
vn 0.000000 -1.000000 0.000000
vn 0.000000 -1.000000 0.000000
vn 0.000000 -1.000000 0.000000
vn 0.000000 -1.000000 0.000000
vn 0.000000 -1.000000 0.000000
vn 0.000000 -1.000000 0.000000
vn 0.000000 -1.000000 0.000000
vn 0.000000 -1.000000 0.000000
vn 0.000000 -1.000000 0.000000
vn 0.000000 -1.000000 0.000000
vn 0.000000 -1.000000 0.000000
vn 0.000000 -1.000000 0.000000
vn 0.000000 -1.000000 0.000000
vn 0.000000 -1.000000 0.000000
vn 0.000000 -0.356921 0.934135
vn 0.000000 -0.356921 0.934135
vn 0.000000 -0.356921 0.934134
vn 0.000000 -0.356921 0.934134
vn 0.979751 -0.200218 0.000000
vn 0.979751 -0.200218 0.000000
vn 0.979751 -0.200218 0.000000
vn 0.979751 -0.200218 0.000000
vn 0.000000 -0.356921 -0.934134
vn 0.000000 -0.356921 -0.934135
vn 0.000000 -0.356921 -0.934135
vn 0.000000 -0.356921 -0.934134
vn -0.979751 -0.200218 0.000000
vn -0.979751 -0.200218 0.000000
vn -0.979751 -0.200218 0.000000
vn -0.979751 -0.200218 0.000000
vn 0.000000 0.737684 0.675146
vn 0.000000 0.737684 0.675146
vn 0.000000 0.737685 0.675145
vn 0.000000 0.737685 0.675145
vn 0.796260 0.604934 -0.005037
vn 0.763144 0.646226 0.001931
vn 0.824684 0.565584 0.003415
vn 0.778894 0.627144 0.003787
vn 0.000000 0.737686 -0.675145
vn 0.000000 0.737684 -0.675146
vn 0.000000 0.737684 -0.675146
vn 0.000000 0.737685 -0.675145
vn -0.778894 0.627144 0.003787
vn -0.824684 0.565584 0.003415
vn -0.763144 0.646226 0.001931
vn -0.796260 0.604934 -0.005037
vn -0.640436 0.768012 0.000000
vn -0.640436 0.768012 0.000000
vn 0.000000 -1.000000 0.000000
vn 0.000000 -1.000000 0.000000
vn -0.979751 -0.200218 0.000000
vn -0.979751 -0.200218 0.000000
vn -0.812130 0.583454 -0.005121
vn -0.802157 0.597090 -0.005241
vn -0.000000 0.999811 -0.019435
vn -0.000000 0.999811 -0.019435
vn -0.000001 0.999811 -0.019435
vn -0.000001 0.999811 -0.019435
vn 0.802157 0.597090 -0.005241
vn 0.812130 0.583454 -0.005121
vn 0.979751 -0.200218 0.000000
vn 0.979751 -0.200218 0.000000
vn 0.000000 -1.000000 0.000000
vn 0.000000 -1.000000 0.000000
vn 0.640436 0.768012 0.000000
vn 0.640436 0.768012 0.000000
vn 1.000000 0.000000 0.000000
vn 1.000000 0.000000 0.000000
vn 0.000000 -1.000000 0.000000
vn -0.000000 -1.000000 0.000000
vn -1.000000 0.000000 0.000000
vn -1.000000 0.000000 0.000000
vn 0.000000 0.107819 0.994171
vn 0.000000 0.107819 0.994171
vn 0.000000 0.107819 0.994171
vn 0.000000 0.107819 0.994171
vn 0.995905 0.090411 0.000000
vn 0.993845 0.110778 0.000000
vn 0.993988 0.109490 0.000000
vn 0.995905 0.090411 0.000000
vn 0.000000 0.829652 -0.558281
vn 0.000000 0.829653 -0.558280
vn 0.000000 0.829653 -0.558280
vn 0.000000 0.829652 -0.558281
vn -0.993988 0.109490 0.000000
vn -0.993845 0.110778 0.000000
vn -0.995905 0.090411 0.000000
vn -0.995905 0.090411 0.000000
vn 0.000000 0.000000 1.000000
vn 0.000000 0.000000 1.000000
vn 1.000000 0.000000 0.000000
vn 1.000000 0.000000 0.000000
vn 1.000000 0.000001 0.000000
vn -0.000000 0.000000 -1.000000
vn 0.000000 0.000000 -1.000000
vn -1.000000 0.000000 0.000000
vn -1.000000 0.000000 0.000000
vn -1.000000 0.000000 0.000000
vn 0.000000 0.000000 -1.000000
vn 0.000000 0.000000 -1.000000
vn 1.000000 0.000000 0.000000
vn 1.000000 0.000001 0.000000
vn 1.000000 0.000000 0.000000
vn 0.000000 0.000000 1.000000
vn 0.000000 0.000000 1.000000
vn -1.000000 0.000000 0.000000
vn -1.000000 0.000000 0.000000
vn -1.000000 0.000000 0.000000
vn 0.000000 -1.000000 0.000000
vn -0.000000 -1.000000 0.000000
vn 0.000000 -1.000000 -0.000000
vn -0.000000 0.000000 -1.000000
vn -0.000000 0.000000 -1.000000
vn 0.000000 0.000000 -1.000000
vn 0.000000 0.000000 -1.000000
vn 0.000000 0.913285 -0.407322
vn 0.000000 0.913285 -0.407322
vn 0.000000 -1.000000 0.000000
vn 0.000000 -1.000000 0.000000
vn 0.000000 -0.356921 -0.934135
vn 0.000000 -0.356921 -0.934135
vn 0.000000 0.737684 -0.675146
vn 0.000000 0.737684 -0.675146
vn -0.000000 0.829653 -0.558280
vn 0.000000 0.829653 -0.558280
vn 0.000000 0.999924 -0.012311
vn 0.000000 0.999924 -0.012311
vn 0.000000 0.107819 0.994171
vn 0.000000 0.107819 0.994171
vn 0.000000 0.999811 -0.019435
vn 0.000000 0.999811 -0.019435
vn 0.000000 0.737684 0.675146
vn 0.000000 0.737684 0.675146
vn 0.000000 -0.356921 0.934135
vn 0.000000 -0.356921 0.934135
vn 0.000000 -1.000000 -0.000000
vn 0.000000 -1.000000 -0.000000
vn 0.000000 0.913285 0.407322
vn 0.000000 0.913285 0.407322
vn 0.000000 0.000000 1.000000
vn 0.000000 0.000000 1.000000
vn 0.000000 0.000000 1.000000
vn 0.000000 0.000000 1.000000
vn 0.000000 -1.000000 0.000000
vn 0.000000 -1.000000 0.000000
vn 0.000000 -1.000000 -0.000000
vn 0.000000 0.000000 -1.000000
vn 0.000000 0.000000 -1.000000
vn 0.000000 0.000000 -1.000000
vn 0.000000 0.000000 -1.000000
vn 0.000000 0.913284 -0.407322
vn 0.000000 0.913285 -0.407322
vn 0.000000 -1.000000 0.000000
vn 0.000000 -1.000000 0.000000
vn 0.000000 -0.356921 -0.934135
vn 0.000000 -0.356921 -0.934135
vn 0.000000 0.737684 -0.675146
vn 0.000000 0.737684 -0.675146
vn -0.000000 0.829653 -0.558280
vn -0.000000 0.829652 -0.558280
vn 0.000000 0.999924 -0.012311
vn 0.000000 0.999924 -0.012311
vn 0.000000 0.107819 0.994171
vn 0.000000 0.107819 0.994171
vn 0.000001 0.999811 -0.019435
vn 0.000001 0.999811 -0.019435
vn 0.000000 0.737684 0.675146
vn 0.000000 0.737684 0.675146
vn 0.000000 -0.356921 0.934135
vn 0.000000 -0.356921 0.934135
vn 0.000000 -1.000000 -0.000000
vn 0.000000 -1.000000 -0.000000
vn 0.000000 0.913284 0.407322
vn 0.000000 0.913285 0.407322
vn 0.000000 0.000000 1.000000
vn 0.000000 0.000000 1.000000
vn 0.000000 0.000000 1.000000
vn 0.000000 0.000000 1.000000
vn 0.000000 -1.000000 -0.000000
vn 0.000000 -1.000000 -0.000000
vn -0.000000 -1.000000 -0.000000
vn 0.000000 -1.000000 0.000000
vn 1.000000 -0.000000 0.000000
vn 1.000000 0.000001 0.000000
vn 1.000000 -0.000000 0.000000
vn 1.000000 0.000001 0.000000
vn 0.640436 0.768011 0.000000
vn 0.640436 0.768011 0.000000
vn 0.000000 -1.000000 0.000000
vn 0.000000 -1.000000 0.000000
vn 0.979751 -0.200218 0.000000
vn 0.979751 -0.200218 0.000000
vn 0.826364 0.563126 0.003400
vn 0.826364 0.563126 0.003400
vn 0.993124 0.117064 0.000000
vn 0.993124 0.117064 0.000000
vn -0.000000 0.999924 -0.012311
vn 0.000000 0.999924 -0.012311
vn 0.000000 0.999924 -0.012311
vn 0.000000 0.999924 -0.012311
vn -0.993124 0.117064 0.000000
vn -0.993124 0.117064 0.000000
vn -0.826364 0.563126 0.003400
vn -0.826364 0.563126 0.003400
vn -0.979751 -0.200218 0.000000
vn -0.979751 -0.200218 0.000000
vn 0.000000 -1.000000 0.000000
vn 0.000000 -1.000000 0.000000
vn -0.640436 0.768011 0.000000
vn -0.640437 0.768011 0.000000
vn -1.000000 0.000000 0.000000
vn -1.000000 0.000000 0.000000
vn -1.000000 0.000000 0.000000
vn -1.000000 0.000000 0.000000
vn -0.640436 0.768012 0.000000
vn -0.640436 0.768012 0.000000
vn 0.000000 -1.000000 0.000000
vn 0.000000 -1.000000 0.000000
vn -0.979751 -0.200218 0.000000
vn -0.979751 -0.200218 0.000000
vn -0.860357 0.509672 -0.004473
vn -0.860357 0.509672 -0.004473
vn 0.000001 0.999811 -0.019435
vn 0.000000 0.999811 -0.019435
vn -0.000000 0.999811 -0.019435
vn -0.000001 0.999811 -0.019435
vn 0.860357 0.509672 -0.004473
vn 0.860357 0.509672 -0.004473
vn 0.979751 -0.200218 0.000000
vn 0.979751 -0.200218 0.000000
vn 0.000000 -1.000000 0.000000
vn 0.000000 -1.000000 0.000000
vn 0.640436 0.768012 0.000000
vn 0.640436 0.768012 0.000000
vn 1.000000 0.000000 0.000000
vn 1.000000 0.000000 0.000000
vn 1.000000 0.000000 0.000000
vn 1.000000 0.000000 0.000000
vn -0.000000 -1.000000 0.000000
vn 0.000000 -1.000000 0.000000
vn 0.000000 -1.000000 0.000000
vn 0.000000 -1.000000 0.000000
vn -1.000000 0.000000 0.000000
vn -1.000000 0.000000 0.000000
vn -1.000000 0.000000 0.000000
vn -1.000000 0.000000 0.000000
s 1
g pCube48
usemtl initialShadingGroup
f 71/1/1 72/2/2 42/11/3 50/12/4
s 2
f 104/44/5 105/45/6 64/46/7 38/47/8
s 3
f 56/13/9 57/178/10 48/30/11 44/39/12
s 4
f 54/7/13 95/8/14 96/9/15 35/10/16
s 5
f 97/41/17 98/42/18 49/48/19 43/49/20
s 6
f 113/50/21 114/51/22 46/52/23 52/53/24
s 7
f 69/3/25 70/4/26 4/5/27 10/6/28
s 8
f 33/31/29 34/38/30 99/69/31 100/81/32
s 9
f 6/90/33 58/199/34 59/110/35 11/125/36
s 10
f 111/129/37 112/140/38 25/153/39 26/154/40
s 11
f 68/14/41 69/15/42 10/16/43 14/17/44
s 12
f 32/32/45 33/37/46 100/70/47 101/80/48
s 13
f 11/91/49 59/99/50 60/112/51 15/123/52
s 14
f 110/130/53 111/139/54 26/152/55 27/155/56
s 15
f 67/18/57 68/19/58 14/20/59 18/21/60
s 16
f 31/22/61 32/23/62 101/24/63 102/25/64
s 17
f 15/33/65 60/219/66 61/221/67 19/36/68
s 18
f 109/71/69 110/72/70 27/78/71 28/79/72
s 19
f 66/92/73 67/18/74 18/21/75 22/93/76
s 20
f 30/98/77 31/22/78 102/25/79 103/113/80
s 21
f 19/36/81 61/221/82 62/114/83 23/121/84
s 22
f 108/122/85 109/71/86 28/79/87 29/131/88
s 10
f 26/154/40 25/153/39 115/171/89 116/172/90
s 14
f 27/155/56 26/152/55 116/169/91 117/170/92
s 18
f 28/79/72 27/78/71 117/132/93 118/137/94
s 22
f 29/131/88 28/79/87 118/137/95 119/138/96
s 23
f 65/26/97 121/27/98 122/77/99 30/97/100
s 20
f 122/156/101 123/157/102 31/22/78 30/98/77
s 16
f 123/157/103 124/158/104 32/23/62 31/22/61
s 12
f 124/202/105 125/203/106 33/37/46 32/32/45
s 8
f 125/189/107 126/190/108 34/38/30 33/31/29
s 5
f 127/54/109 128/55/110 43/49/20 49/48/19
s 4
f 129/40/111 130/43/112 54/7/13 35/10/16
s 6
f 133/56/113 134/57/114 52/53/24 46/52/23
s 24
f 64/28/115 65/29/116 30/34/117 38/35/118
s 25
f 30/34/119 103/73/120 104/76/121 38/35/122
s 26
f 23/94/123 62/180/124 63/115/125 39/120/126
s 27
f 107/224/127 108/225/128 29/226/129 37/227/130
s 1
f 72/2/2 53/58/131 2/59/132 42/11/3
s 5
f 128/55/110 129/60/133 35/61/134 43/49/20
f 96/62/135 97/41/17 43/49/20 35/61/134
s 3
f 55/186/136 56/13/9 44/39/12 8/63/137
s 6
f 114/51/22 93/67/138 36/68/139 46/52/23
f 132/82/140 133/56/113 46/52/23 36/68/139
s 3
f 57/178/10 58/83/141 6/84/142 48/30/11
s 5
f 34/88/143 49/48/19 98/42/18 99/89/144
f 126/100/145 127/54/109 49/48/19 34/88/143
s 1
f 70/101/146 71/1/1 50/12/4 4/102/147
s 6
f 25/107/148 52/53/24 134/57/114 115/108/149
f 112/109/150 113/50/21 52/53/24 25/107/148
s 4
f 130/43/112 131/64/151 74/65/152 54/7/13
f 74/65/152 94/66/153 95/8/14 54/7/13
s 3
f 75/185/154 76/184/155 56/13/9 55/186/136
f 76/184/155 77/177/156 57/178/10 56/13/9
f 77/177/156 78/183/157 58/83/141 57/178/10
s 9
f 59/110/35 58/199/34 78/200/158 79/201/159
s 13
f 60/112/51 59/99/50 79/204/160 80/205/161
s 17
f 61/221/67 60/219/66 80/220/162 81/222/163
s 21
f 62/114/83 61/221/82 81/222/164 82/223/165
s 26
f 63/115/125 62/180/124 82/179/166 83/164/167
s 2
f 105/45/6 106/74/168 84/75/169 64/46/7
s 24
f 84/188/170 85/187/171 65/29/116 64/28/115
s 23
f 85/133/172 120/134/173 121/27/98 65/26/97
s 19
f 86/167/174 87/168/175 67/18/74 66/92/73
s 15
f 87/168/176 88/212/177 68/19/58 67/18/57
s 11
f 88/206/178 89/207/179 69/15/42 68/14/41
s 7
f 89/193/180 90/194/181 70/4/26 69/3/25
s 1
f 90/128/182 91/141/183 71/1/1 70/101/146
f 91/141/183 92/142/184 72/2/2 71/1/1
f 92/142/184 73/143/185 53/58/131 72/2/2
s 4
f 36/85/186 74/65/152 131/64/151 132/86/187
f 93/87/188 94/66/153 74/65/152 36/85/186
s 3
f 45/145/189 76/124/155 75/111/154 7/148/190
f 47/150/191 77/126/156 76/124/155 45/145/189
f 5/151/192 78/127/157 77/126/156 47/150/191
s 9
f 79/192/159 78/191/158 5/195/193 12/196/194
s 13
f 80/205/161 79/204/160 12/208/195 16/209/196
s 17
f 81/165/163 80/159/162 16/213/197 20/214/198
s 21
f 82/166/165 81/165/164 20/214/199 24/215/200
s 26
f 83/229/167 82/228/166 24/182/201 40/181/202
s 2
f 37/95/203 84/75/169 106/74/168 107/96/204
s 24
f 29/226/205 85/187/171 84/188/170 37/227/206
s 23
f 119/135/207 120/134/173 85/133/172 29/136/208
s 19
f 17/216/209 87/168/175 86/167/174 21/217/210
s 15
f 13/218/211 88/212/177 87/168/176 17/216/212
s 11
f 9/210/213 89/207/179 88/206/178 13/211/214
s 7
f 3/197/215 90/194/181 89/193/180 9/198/216
s 1
f 51/173/217 91/141/183 90/128/182 3/174/218
f 41/175/219 92/142/184 91/141/183 51/173/217
f 1/176/220 73/143/185 92/142/184 41/175/219
s 4
f 7/103/221 75/104/222 94/66/153 93/87/188
f 95/8/14 94/66/153 75/104/222 55/105/223
f 96/9/15 95/8/14 55/105/223 8/106/224
s 5
f 44/39/225 97/41/17 96/62/135 8/63/226
f 48/30/227 98/42/18 97/41/17 44/39/225
f 99/89/144 98/42/18 48/30/227 6/84/228
s 8
f 100/81/32 99/69/31 6/90/229 11/125/230
s 12
f 101/80/48 100/70/47 11/91/231 15/123/232
s 16
f 102/25/64 101/24/63 15/33/233 19/36/234
s 20
f 103/113/80 102/25/79 19/36/235 23/121/236
s 25
f 104/76/121 103/73/120 23/94/237 39/120/238
s 2
f 63/116/239 105/45/6 104/44/5 39/117/240
f 83/118/241 106/74/168 105/45/6 63/116/239
f 107/96/204 106/74/168 83/118/241 40/119/242
s 27
f 24/182/243 108/225/128 107/224/127 40/181/244
s 22
f 20/214/245 109/71/86 108/122/85 24/215/246
s 18
f 16/213/247 110/72/70 109/71/69 20/214/248
s 14
f 12/208/249 111/139/54 110/130/53 16/209/250
s 10
f 5/195/251 112/140/38 111/129/37 12/196/252
s 6
f 47/150/253 113/50/21 112/109/150 5/151/254
f 45/145/255 114/51/22 113/50/21 47/150/253
f 7/148/256 93/67/138 114/51/22 45/145/255
s 10
f 116/172/90 115/171/89 3/197/257 9/198/258
s 14
f 117/170/92 116/169/91 9/210/259 13/211/260
s 18
f 118/137/94 117/132/93 13/218/261 17/216/262
s 22
f 119/138/96 118/137/95 17/216/263 21/217/264
s 23
f 21/160/265 86/161/266 120/134/173 119/135/207
f 121/27/98 120/134/173 86/161/266 66/162/267
f 122/77/99 121/27/98 66/162/267 22/163/268
s 20
f 18/21/269 123/157/102 122/156/101 22/93/270
s 16
f 14/20/271 124/158/104 123/157/103 18/21/272
s 12
f 10/16/273 125/203/106 124/202/105 14/17/274
s 8
f 4/5/275 126/190/108 125/189/107 10/6/276
s 5
f 50/12/277 127/54/109 126/100/145 4/102/278
f 42/11/279 128/55/110 127/54/109 50/12/277
f 2/59/280 129/60/133 128/55/110 42/11/279
s 4
f 53/144/281 130/43/112 129/40/111 2/146/282
f 73/147/283 131/64/151 130/43/112 53/144/281
f 132/86/187 131/64/151 73/147/283 1/149/284
s 6
f 41/175/285 133/56/113 132/82/140 1/176/286
f 51/173/287 134/57/114 133/56/113 41/175/285
f 115/108/149 134/57/114 51/173/287 3/174/288
