# This file uses centimeters as units for non-parametric coordinates.

mtllib pillow.mtl
g default
v -2.316078 1.819700 4.987821
v -0.486399 1.819700 4.987821
v -2.312362 2.105210 4.894873
v -0.492042 2.105210 4.894873
v -2.312362 2.105210 4.305127
v -0.492042 2.105210 4.305127
v -2.316078 1.819700 4.212179
v -0.486399 1.819700 4.212179
v -2.069231 1.780795 5.189749
v -2.069231 2.164404 5.042312
v -2.069231 2.164404 4.157688
v -2.069231 1.780795 4.010251
v -0.748110 1.780795 5.189749
v -0.748110 2.164404 5.042312
v -0.748110 2.164404 4.157688
v -0.748110 1.780795 4.010251
v -1.409909 1.774310 5.202571
v -0.748110 2.000000 5.189749
v -1.409909 2.169267 5.051928
v -0.748110 2.219205 4.600000
v -1.409909 2.169267 4.148072
v -0.748110 2.000000 4.010251
v -1.409909 1.774310 3.997429
v -0.508164 1.800247 5.151285
v -0.508164 2.149815 5.013464
v -0.508164 2.149815 4.186536
v -0.508164 1.800247 4.048715
v -2.301746 1.800247 5.151285
v -2.069231 2.000000 5.189749
v -2.301746 2.149815 5.013464
v -2.316078 2.000000 4.987821
v -2.069231 2.219205 4.600000
v -2.301746 2.149815 4.186536
v -2.316078 2.136846 4.600000
v -2.069231 2.000000 4.010251
v -2.301746 1.800247 4.048715
v -2.316078 2.000000 4.212179
v -0.479144 1.826184 4.600000
v -0.486399 2.000000 4.212179
v -0.486399 2.136846 4.600000
v -0.486399 2.000000 4.987821
v -2.320856 1.826184 4.600000
v -2.301746 2.000000 5.151285
v -2.301746 2.199753 4.600000
v -2.301746 2.000000 4.048715
v -0.479144 2.000000 4.600000
v -2.320856 2.000000 4.600000
v -1.409909 2.000000 5.202571
v -1.409909 2.225690 4.600000
v -1.409909 2.000000 3.997429
v -0.508164 2.000000 5.151285
v -0.508164 2.199753 4.600000
v -0.508164 2.000000 4.048715
vt 0.375000 1.061261
vt 0.625000 1.061261
vt 0.375000 1.311261
vt 0.625000 1.311261
vt 0.375000 1.561261
vt 0.125000 1.311261
vt 0.875000 1.311261
vt 0.625000 1.561261
vt 0.125000 1.061261
vt 0.375000 1.811261
vt 0.625000 1.811261
vt 0.875000 1.061261
vt 0.390565 1.061261
vt 0.415642 1.311261
vt 0.415642 1.561261
vt 0.390565 1.811261
vt 0.606745 1.061261
vt 0.582004 1.311261
vt 0.582004 1.561261
vt 0.606745 1.811261
vt 0.382783 1.186261
vt 0.382783 1.436261
vt 0.382783 1.686261
vt 0.750000 1.186261
vt 0.250000 1.186261
vt 0.498655 1.186261
vt 0.498655 1.436261
vt 0.498655 1.686261
vt 0.615872 1.186261
vt 0.615872 1.436261
vt 0.615872 1.686261
vt 0.382783 1.061261
vt 0.415642 1.186261
vt 0.382783 1.311261
vt 0.345696 1.186261
vt 0.415642 1.436261
vt 0.382783 1.561261
vt 0.375000 1.436261
vt 0.250000 1.311261
vt 0.415642 1.686261
vt 0.382783 1.811261
vt 0.375000 1.686261
vt 0.125000 1.186261
vt 0.750000 1.061261
vt 0.875000 1.186261
vt 0.625000 1.686261
vt 0.750000 1.311261
vt 0.625000 1.436261
vt 0.653968 1.186261
vt 0.250000 1.061261
vt 0.498655 1.061261
vt 0.582004 1.186261
vt 0.498655 1.311261
vt 0.582004 1.436261
vt 0.498655 1.561261
vt 0.582004 1.686261
vt 0.498655 1.811261
vt 0.615872 1.061261
vt 0.615872 1.311261
vt 0.615872 1.561261
vt 0.615872 1.811261
vn -0.999220 -0.000000 0.039481
vn -0.480322 0.000000 0.877092
vn -0.535553 0.312882 0.784402
vn -0.999071 0.021361 0.037422
vn -0.047588 0.000000 0.998867
vn -0.052403 0.356700 0.932748
vn -0.032595 0.937614 0.346148
vn -0.275714 0.898451 0.341712
vn -0.995370 0.090364 0.032750
vn -0.224221 0.974538 -0.000000
vn -0.993933 0.109985 -0.000000
vn -0.026155 0.999658 -0.000000
vn -0.032595 0.937614 -0.346148
vn -0.275714 0.898451 -0.341712
vn -0.995370 0.090363 -0.032750
vn -0.535553 0.312882 -0.784402
vn -0.999071 0.021361 -0.037422
vn -0.052403 0.356700 -0.932748
vn -0.047588 0.000000 -0.998867
vn -0.480322 0.000000 -0.877092
vn -0.999220 -0.000000 -0.039481
vn 0.998205 0.000000 0.059886
vn 1.000000 0.000000 0.000000
vn 0.999738 0.022887 0.000000
vn 0.997863 0.032392 0.056754
vn 0.998205 0.000000 -0.059886
vn 0.997863 0.032392 -0.056754
vn 0.989419 0.136401 -0.049435
vn 0.986179 0.165686 0.000000
vn 0.989420 0.136401 0.049435
vn -1.000000 0.000000 0.000000
vn -0.999886 0.015074 0.000000
vn 0.000000 0.356346 0.934354
vn 0.000000 0.937538 0.347884
vn 0.000001 0.000000 1.000000
vn 0.047353 0.000000 0.998878
vn 0.051870 0.356747 0.932760
vn 0.032312 0.937628 0.346135
vn 0.000000 1.000000 -0.000000
vn 0.000000 0.937538 -0.347883
vn 0.025919 0.999664 0.000000
vn 0.032312 0.937628 -0.346135
vn 0.000000 0.356346 -0.934354
vn 0.000001 0.000000 -1.000000
vn 0.051870 0.356747 -0.932760
vn 0.047353 0.000000 -0.998878
vn 0.516264 0.316332 0.795868
vn 0.264817 0.901560 0.342143
vn 0.464293 0.000000 0.885682
vn 0.214973 0.976620 -0.000000
vn 0.264817 0.901560 -0.342143
vn 0.516264 0.316332 -0.795868
vn 0.464293 0.000000 -0.885682
s 1
g pCube59
usemtl initialShadingGroup
f 1/1/1 28/32/2 43/21/3 31/35/4
f 28/32/2 9/13/5 29/33/6 43/21/3
f 43/21/3 29/33/6 10/14/7 30/34/8
f 31/35/4 43/21/3 30/34/8 3/3/9
f 3/3/9 30/34/8 44/22/10 34/38/11
f 30/34/8 10/14/7 32/36/12 44/22/10
f 44/22/10 32/36/12 11/15/13 33/37/14
f 34/38/11 44/22/10 33/37/14 5/5/15
f 5/5/15 33/37/14 45/23/16 37/42/17
f 33/37/14 11/15/13 35/40/18 45/23/16
f 45/23/16 35/40/18 12/16/19 36/41/20
f 37/42/17 45/23/16 36/41/20 7/10/21
f 2/2/22 38/44/23 46/24/24 41/49/25
f 38/44/23 8/12/26 39/45/27 46/24/24
f 46/24/24 39/45/27 6/7/28 40/47/29
f 41/49/25 46/24/24 40/47/29 4/4/30
f 7/9/21 42/50/31 47/25/32 37/43/17
f 42/50/31 1/1/1 31/35/4 47/25/32
f 47/25/32 31/35/4 3/3/9 34/39/11
f 37/43/17 47/25/32 34/39/11 5/6/15
f 10/14/7 29/33/6 48/26/33 19/53/34
f 29/33/6 9/13/5 17/51/35 48/26/33
f 48/26/33 17/51/35 13/17/36 18/52/37
f 19/53/34 48/26/33 18/52/37 14/18/38
f 11/15/13 32/36/12 49/27/39 21/55/40
f 32/36/12 10/14/7 19/53/34 49/27/39
f 49/27/39 19/53/34 14/18/38 20/54/41
f 21/55/40 49/27/39 20/54/41 15/19/42
f 12/16/19 35/40/18 50/28/43 23/57/44
f 35/40/18 11/15/13 21/55/40 50/28/43
f 50/28/43 21/55/40 15/19/42 22/56/45
f 23/57/44 50/28/43 22/56/45 16/20/46
f 14/18/38 18/52/37 51/29/47 25/59/48
f 18/52/37 13/17/36 24/58/49 51/29/47
f 51/29/47 24/58/49 2/2/22 41/49/25
f 25/59/48 51/29/47 41/49/25 4/4/30
f 15/19/42 20/54/41 52/30/50 26/60/51
f 20/54/41 14/18/38 25/59/48 52/30/50
f 52/30/50 25/59/48 4/4/30 40/48/29
f 26/60/51 52/30/50 40/48/29 6/8/28
f 16/20/46 22/56/45 53/31/52 27/61/53
f 22/56/45 15/19/42 26/60/51 53/31/52
f 53/31/52 26/60/51 6/8/28 39/46/27
f 27/61/53 53/31/52 39/46/27 8/11/26
