# This file uses centimeters as units for non-parametric coordinates.

mtllib desk.mtl
g default
v -1.948282 0.199726 -0.292270
v -0.219115 0.199726 -0.292270
v -2.120169 2.623533 -0.292270
v -0.047220 2.623533 -0.292270
v -2.120169 2.623533 -2.021438
v -0.047220 2.623533 -2.021438
v -1.948282 0.199726 -2.021438
v -0.219115 0.199726 -2.021438
v -2.120169 1.960026 -0.292270
v -0.047220 1.960026 -0.292270
v -0.047220 1.960026 -2.021438
v -2.120169 1.960026 -2.021438
v -1.948282 1.475667 -0.292270
v -0.219115 1.475667 -0.292270
v -0.219115 1.475667 -2.021438
v -1.948282 1.475667 -2.021438
v -1.948282 0.984996 -0.292270
v -0.219115 0.984996 -0.292270
v -0.219115 0.984996 -2.021438
v -1.948282 0.984996 -2.021438
v -1.948282 0.508370 -0.292270
v -0.219115 0.508370 -0.292270
v -0.219115 0.508370 -2.021438
v -1.948282 0.508370 -2.021438
v -1.717901 1.431020 -0.292270
v -0.449499 1.431020 -0.292270
v -0.449499 1.825821 -0.292270
v -1.717901 1.825821 -0.292270
v -1.717901 1.031073 -0.292270
v -0.449499 1.031073 -0.292270
v -1.717901 0.642575 -0.292270
v -0.449499 0.642575 -0.292270
v -1.717901 1.431020 -0.560777
v -0.449499 1.431020 -0.560777
v -0.449499 1.825821 -0.560777
v -1.717901 1.825821 -0.560777
v -1.717901 1.031073 -0.560777
v -0.449499 1.031073 -0.560777
v -1.717901 0.642575 -0.560777
v -0.449499 0.642575 -0.560777
v -1.919396 2.714378 -0.459753
v -0.248002 2.714378 -0.459753
v -0.248002 2.714378 -1.853954
v -1.919396 2.714378 -1.853954
v -1.967883 2.267695 -0.419307
v -0.199514 2.267695 -0.419307
v -0.199514 2.595318 -0.419307
v -1.967883 2.595318 -0.419307
v -1.967883 2.595318 -1.894401
v -0.199514 2.595318 -1.894401
v -0.199514 2.267695 -1.894401
v -1.967883 2.267695 -1.894401
v -2.042741 2.116467 -0.356866
v -0.124658 2.116467 -0.356866
v -0.124658 2.116467 -1.956842
v -2.042741 2.116467 -1.956842
v -1.703299 1.427556 -0.246835
v -0.473883 1.427556 -0.246835
v -1.703299 1.869236 -0.246835
v -0.473883 1.869236 -0.246835
v -1.703299 1.869236 -0.557445
v -0.473883 1.869236 -0.557445
v -1.703299 1.427556 -0.557445
v -0.473883 1.427556 -0.557445
v -1.703299 0.956852 -0.246835
v -0.473883 0.956852 -0.246835
v -1.703299 1.398531 -0.246835
v -0.473883 1.398531 -0.246835
v -1.703299 1.398531 -0.557445
v -0.473883 1.398531 -0.557445
v -1.703299 0.956852 -0.557445
v -0.473883 0.956852 -0.557445
v -1.703299 0.483783 -0.246835
v -0.473883 0.483783 -0.246835
v -1.703299 0.925463 -0.246835
v -0.473883 0.925463 -0.246835
v -1.703299 0.925463 -0.557445
v -0.473883 0.925463 -0.557445
v -1.703299 0.483783 -0.557445
v -0.473883 0.483783 -0.557445
v -0.219106 -0.442963 -0.292270
v -0.219106 -0.442963 -0.490767
v -0.219106 0.199726 -0.292270
v -0.219106 0.199726 -0.490767
v -0.417603 0.199726 -0.292270
v -0.417603 0.199726 -0.490767
v -0.417603 -0.442963 -0.292270
v -0.417603 -0.442963 -0.490767
v -1.948274 -0.442963 -0.292270
v -1.749776 -0.442963 -0.292270
v -1.948274 0.199726 -0.292270
v -1.749776 0.199726 -0.292270
v -1.948274 0.199726 -0.490767
v -1.749776 0.199726 -0.490767
v -1.948274 -0.442963 -0.490767
v -1.749776 -0.442963 -0.490767
v -1.948274 -0.442963 -2.021437
v -1.948274 -0.442963 -1.822939
v -1.948274 0.199726 -2.021437
v -1.948274 0.199726 -1.822939
v -1.749776 0.199726 -2.021437
v -1.749776 0.199726 -1.822939
v -1.749776 -0.442963 -2.021437
v -1.749776 -0.442963 -1.822939
v -0.219106 -0.442963 -2.021438
v -0.417603 -0.442963 -2.021438
v -0.219106 0.199726 -2.021438
v -0.417603 0.199726 -2.021438
v -0.219106 0.199726 -1.822940
v -0.417603 0.199726 -1.822940
v -0.219106 -0.442963 -1.822940
v -0.417603 -0.442963 -1.822940
vt 0.191763 0.666715
vt 0.350834 0.666715
vt 0.970772 0.327617
vt 0.601843 0.327618
vt 0.628946 0.305008
vt 0.943667 0.305008
vt 0.162110 0.078373
vt 0.430279 0.078373
vt 0.430279 0.333519
vt 0.162110 0.333519
vt 0.350834 0.984856
vt 0.601842 0.019873
vt 0.191763 0.984856
vt 0.970771 0.019872
vt 0.289543 0.625752
vt 0.550832 0.625752
vt 0.964318 0.334820
vt 0.812121 0.625752
vt 0.028254 0.625752
vt 0.613651 0.334820
vt 0.289543 0.566733
vt 0.550832 0.566733
vt 0.964318 0.365657
vt 0.812121 0.566733
vt 0.028254 0.566733
vt 0.613651 0.365657
vt 0.289543 0.506945
vt 0.550832 0.506945
vt 0.964318 0.396895
vt 0.812121 0.506945
vt 0.028254 0.506945
vt 0.613651 0.396895
vt 0.289543 0.448868
vt 0.550832 0.448868
vt 0.964318 0.427239
vt 0.812121 0.448868
vt 0.028254 0.448868
vt 0.613651 0.427239
vt 0.520208 0.272451
vt 0.563884 0.395519
vt 0.461672 0.361420
vt 0.461672 0.261107
vt 0.037182 0.395519
vt 0.139392 0.361420
vt 0.080856 0.272451
vt 0.139392 0.261107
vt 0.550832 0.566733
vt 0.550832 0.625752
vt 0.289543 0.625752
vt 0.289543 0.566733
vt 0.550832 0.506945
vt 0.289543 0.506945
vt 0.289543 0.448868
vt 0.550832 0.448868
vt 0.162110 0.078373
vt 0.430279 0.078373
vt 0.430279 0.333519
vt 0.162110 0.333519
vt 0.182631 0.666715
vt 0.359966 0.666715
vt 0.943667 0.042481
vt 0.628945 0.042482
vt 0.139392 0.060777
vt 0.461672 0.060777
vt 0.359965 0.984856
vt 0.182631 0.984856
vt 0.520208 0.026677
vt 0.041824 0.666715
vt 0.080856 0.026677
vt 0.182631 0.666715
vt 0.359965 0.666715
vt 0.359965 0.984856
vt 0.182631 0.984856
vt 0.500772 0.666715
vt 0.500772 0.984855
vt 0.182631 0.666715
vt 0.359965 0.666715
vt 0.359965 0.984856
vt 0.182631 0.984856
vt 0.500772 0.984856
vt 0.041824 0.666715
vt 0.041824 0.984856
vt 0.500772 0.666715
vt 0.678107 0.666715
vt 0.678107 0.984856
vt 0.182631 0.666715
vt 0.359965 0.666715
vt 0.359965 0.984856
vt 0.182631 0.984856
vt 0.041824 0.984856
vt 0.500772 0.984856
vt 0.041824 0.666715
vt 0.678107 0.984856
vt 0.500772 0.666715
vt 0.678107 0.666715
vt 0.041824 0.984855
vt 0.500772 0.666715
vt 0.678107 0.666715
vt 0.678107 0.984855
vt 0.500772 0.984855
vt 0.041824 0.666715
vt 0.041824 0.984855
vt 0.678107 0.666715
vt 0.678107 0.984855
vt 0.509904 0.666715
vt 0.509904 0.984856
vt 0.032693 0.984856
vt 0.032693 0.666715
vt 0.668975 0.984856
vt 0.668975 0.666715
vt 0.832444 0.108084
vt 0.927090 0.108084
vt 0.927090 0.161885
vt 0.832443 0.161885
vt 0.736563 0.108084
vt 0.736563 0.161884
vt 0.643428 0.108084
vt 0.643428 0.161884
vt 0.927090 0.106085
vt 0.832444 0.106085
vt 0.832444 0.052285
vt 0.927091 0.052285
vt 0.736563 0.106085
vt 0.736563 0.052284
vt 0.643428 0.106085
vt 0.643428 0.052284
vt 0.644874 0.233465
vt 0.936580 0.233466
vt 0.936580 0.295217
vt 0.644874 0.295217
vt 0.936580 0.231110
vt 0.644874 0.231110
vt 0.644874 0.169359
vt 0.936580 0.169359
vt 0.520208 0.147780
vt 0.461672 0.159488
vt 0.080856 0.147780
vt 0.139392 0.159488
vt 0.880235 0.452954
vt 0.936577 0.452954
vt 0.936577 0.509295
vt 0.880235 0.509295
vt 0.936577 0.565637
vt 0.880235 0.565637
vt 0.936577 0.621978
vt 0.880235 0.621978
vt 0.936577 0.678320
vt 0.880235 0.678320
vt 0.992918 0.452954
vt 0.992918 0.509295
vt 0.823894 0.452954
vt 0.823894 0.509295
vt 0.880235 0.452954
vt 0.936577 0.452954
vt 0.936577 0.509295
vt 0.880235 0.509295
vt 0.936577 0.565637
vt 0.880235 0.565637
vt 0.936577 0.621978
vt 0.880235 0.621978
vt 0.936577 0.678320
vt 0.880235 0.678320
vt 0.992918 0.452954
vt 0.992918 0.509295
vt 0.823894 0.452954
vt 0.823894 0.509295
vt 0.880235 0.452954
vt 0.936577 0.452954
vt 0.936577 0.509295
vt 0.880235 0.509295
vt 0.936577 0.565637
vt 0.880235 0.565637
vt 0.936577 0.621978
vt 0.880235 0.621978
vt 0.936577 0.678320
vt 0.880235 0.678320
vt 0.992918 0.452954
vt 0.992918 0.509295
vt 0.823894 0.452954
vt 0.823894 0.509295
vt 0.367276 0.682089
vt 0.522178 0.991893
vt 0.367276 0.991893
vt 0.212374 0.991893
vt 0.057472 0.991893
vt 0.057472 0.682089
vt 0.212374 0.682089
vt 0.522178 0.682089
vt 0.677080 0.682089
vt 0.677080 0.991893
vt 0.044446 0.690137
vt 0.044446 0.992166
vt 0.497489 0.992166
vt 0.346475 0.992166
vt 0.195460 0.992166
vt 0.195460 0.690137
vt 0.346475 0.690137
vt 0.497489 0.690137
vt 0.648503 0.690137
vt 0.648503 0.992166
vt 0.213596 0.683310
vt 0.363116 0.683310
vt 0.363116 0.982351
vt 0.213596 0.982351
vt 0.064075 0.982351
vt 0.064075 0.683310
vt 0.662157 0.982351
vt 0.512636 0.982351
vt 0.512636 0.683310
vt 0.662157 0.683310
vt 0.046869 0.670547
vt 0.209153 0.670547
vt 0.209153 0.995115
vt 0.046869 0.995115
vt 0.371437 0.995115
vt 0.371437 0.670547
vt 0.533721 0.670547
vt 0.696004 0.670547
vt 0.696004 0.995115
vt 0.533721 0.995115
vt 0.719166 0.975797
vt 0.719166 0.715186
vt 0.979778 0.715186
vt 0.979778 0.975797
vt 0.979778 0.975797
vt 0.719166 0.975797
vt 0.719166 0.715186
vt 0.979778 0.715186
vt 0.719166 0.715186
vt 0.979778 0.715186
vt 0.979778 0.975797
vt 0.719166 0.975797
vt 0.979778 0.715186
vt 0.979778 0.975797
vt 0.719166 0.975797
vt 0.719166 0.715186
vn 0.000000 0.000000 1.000000
vn 0.000000 0.000000 1.000000
vn 0.000000 0.000000 1.000000
vn 0.000000 0.000000 1.000000
vn 0.000000 1.000000 0.000000
vn 0.000000 1.000000 0.000000
vn 0.000000 1.000000 0.000000
vn 0.000000 1.000000 0.000000
vn 0.000000 0.000000 -1.000000
vn 0.000000 0.000000 -1.000000
vn 0.000000 0.000000 -1.000000
vn 0.000000 0.000000 -1.000000
vn 0.000000 -1.000000 0.000000
vn 0.000000 -1.000000 0.000000
vn 0.000000 -1.000000 0.000000
vn 0.000000 -1.000000 0.000000
vn 1.000000 0.000000 0.000000
vn 1.000000 0.000000 0.000000
vn 1.000000 0.000000 0.000000
vn 1.000000 0.000000 0.000000
vn -1.000000 0.000000 0.000000
vn -1.000000 0.000000 0.000000
vn -1.000000 0.000000 0.000000
vn -1.000000 0.000000 0.000000
vn 0.000000 0.000000 1.000000
vn 0.000000 0.000000 1.000000
vn 0.000000 0.000000 1.000000
vn 0.000000 0.000000 1.000000
vn 0.984813 -0.173620 0.000000
vn 0.984813 -0.173620 0.000000
vn 0.942412 -0.334454 0.000000
vn 0.942412 -0.334454 0.000000
vn 0.000000 0.000000 -1.000000
vn 0.000000 0.000000 -1.000000
vn 0.000000 0.000000 -1.000000
vn 0.000000 0.000000 -1.000000
vn -0.984814 -0.173611 0.000000
vn -0.984814 -0.173611 0.000000
vn -0.942417 -0.334439 0.000000
vn -0.942417 -0.334439 0.000000
vn 0.000000 0.000000 1.000000
vn 0.000000 0.000000 1.000000
vn 1.000000 0.000000 0.000000
vn 1.000000 0.000000 0.000000
vn 0.000000 0.000000 -1.000000
vn 0.000000 0.000000 -1.000000
vn -1.000000 0.000000 0.000000
vn -1.000000 0.000000 0.000000
vn 0.000000 0.000000 1.000000
vn 0.000000 0.000000 1.000000
vn 1.000000 0.000000 0.000000
vn 1.000000 0.000000 0.000000
vn 0.000000 0.000000 -1.000000
vn 0.000000 0.000000 -1.000000
vn -1.000000 0.000000 0.000000
vn -1.000000 0.000000 0.000000
vn 0.000000 0.000000 1.000000
vn 0.000000 0.000000 1.000000
vn 0.000000 0.000000 1.000000
vn 0.000000 0.000000 1.000000
vn 1.000000 0.000000 0.000000
vn 1.000000 0.000000 0.000000
vn 0.000000 0.000000 -1.000000
vn 0.000000 0.000000 -1.000000
vn -1.000000 0.000000 0.000000
vn -1.000000 0.000000 0.000000
vn 0.000000 0.000000 1.000000
vn 0.000000 0.000000 1.000000
vn 0.000000 0.000000 1.000000
vn 0.000000 0.000000 1.000000
vn 0.000000 0.000000 1.000000
vn 0.000000 0.000000 1.000000
vn 0.000000 0.000000 1.000000
vn 0.000000 0.000000 1.000000
vn -0.000000 0.000000 1.000000
vn -0.000000 0.000000 1.000000
vn -0.000000 0.000000 1.000000
vn -0.000000 0.000000 1.000000
vn 0.000000 0.000000 1.000000
vn 0.000000 0.000000 1.000000
vn 0.000000 0.000000 1.000000
vn 0.000000 0.000000 1.000000
vn 0.000000 0.000000 1.000000
vn 0.000000 0.000000 1.000000
vn 0.000000 0.000000 1.000000
vn 0.000000 0.000000 1.000000
vn 0.000000 0.000000 1.000000
vn 0.000000 0.000000 1.000000
vn 0.000000 0.000000 1.000000
vn 0.000000 0.000000 1.000000
vn 0.000000 0.000000 1.000000
vn 0.000000 0.000000 1.000000
vn 0.000000 0.000000 1.000000
vn 0.000000 0.000000 1.000000
vn -0.000000 0.000000 1.000000
vn -0.000000 0.000000 1.000000
vn -0.000000 0.000000 1.000000
vn -0.000000 0.000000 1.000000
vn -1.000000 0.000000 0.000000
vn -1.000000 0.000000 0.000000
vn -1.000000 0.000000 0.000000
vn -1.000000 0.000000 0.000000
vn 0.000000 -1.000000 0.000000
vn 0.000000 -1.000000 0.000000
vn 0.000000 -1.000000 0.000000
vn 0.000000 -1.000000 0.000000
vn 1.000000 0.000000 0.000000
vn 1.000000 0.000000 0.000000
vn 1.000000 0.000000 0.000000
vn 1.000000 0.000000 0.000000
vn -1.000000 0.000000 0.000000
vn -1.000000 0.000000 0.000000
vn -1.000000 0.000000 0.000000
vn -1.000000 0.000000 0.000000
vn 1.000000 0.000000 0.000000
vn 1.000000 0.000000 0.000000
vn 1.000000 0.000000 0.000000
vn 1.000000 0.000000 0.000000
vn 0.000000 1.000000 0.000000
vn 0.000000 1.000000 0.000000
vn 0.000000 1.000000 0.000000
vn 0.000000 1.000000 0.000000
vn -1.000000 0.000000 0.000000
vn -1.000000 0.000000 0.000000
vn -1.000000 0.000000 0.000000
vn -1.000000 0.000000 0.000000
vn 1.000000 0.000000 0.000000
vn 1.000000 0.000000 0.000000
vn 1.000000 0.000000 0.000000
vn 1.000000 0.000000 0.000000
vn 0.000000 0.879019 0.476787
vn 0.000000 0.879019 0.476787
vn 0.000000 0.879019 0.476787
vn 0.000000 0.879019 0.476787
vn 0.412224 0.911083 0.000000
vn 0.412224 0.911083 0.000000
vn 0.412224 0.911083 0.000000
vn 0.412224 0.911083 0.000000
vn 0.000000 0.879019 -0.476788
vn 0.000000 0.879019 -0.476788
vn 0.000000 0.879019 -0.476788
vn 0.000000 0.879019 -0.476788
vn -0.412240 0.911075 0.000000
vn -0.412240 0.911075 0.000000
vn -0.412240 0.911075 0.000000
vn -0.412240 0.911075 0.000000
vn 0.000000 0.381651 0.924307
vn 0.000000 0.381651 0.924307
vn 0.000000 0.381640 0.924311
vn 0.000000 0.381640 0.924311
vn 0.000000 -0.976212 0.216820
vn 0.000000 -0.976212 0.216820
vn 0.000000 -0.976212 0.216820
vn 0.000000 -0.976212 0.216820
vn 0.000000 -0.976212 -0.216820
vn 0.000000 -0.976212 -0.216820
vn 0.000000 -0.976212 -0.216820
vn 0.000000 -0.976212 -0.216820
vn 0.000000 0.381650 -0.924307
vn 0.000000 0.381650 -0.924307
vn 0.000000 0.381645 -0.924309
vn 0.000000 0.381645 -0.924309
vn 0.896214 0.443621 -0.000000
vn 0.896214 0.443621 -0.000000
vn 0.896215 0.443619 -0.000000
vn 0.896215 0.443619 -0.000000
vn 0.182169 -0.983267 0.000000
vn 0.182169 -0.983267 0.000000
vn 0.182169 -0.983267 0.000000
vn 0.182169 -0.983267 0.000000
vn -0.896227 0.443595 -0.000000
vn -0.896228 0.443595 -0.000000
vn -0.896213 0.443624 -0.000000
vn -0.896213 0.443624 -0.000000
vn -0.182179 -0.983265 0.000000
vn -0.182179 -0.983265 0.000000
vn -0.182179 -0.983265 0.000000
vn -0.182179 -0.983265 0.000000
vn 0.000000 0.381657 0.924304
vn 0.000000 0.381657 0.924304
vn 0.896214 0.443622 -0.000000
vn 0.896214 0.443622 -0.000000
vn 0.000000 0.381652 -0.924306
vn 0.000000 0.381652 -0.924306
vn -0.896236 0.443578 -0.000000
vn -0.896236 0.443578 -0.000000
vn 0.000000 0.000000 1.000000
vn 0.000000 0.000000 1.000000
vn 0.000000 0.000000 1.000000
vn 0.000000 0.000000 1.000000
vn 0.000000 1.000000 0.000000
vn 0.000000 1.000000 0.000000
vn 0.000000 1.000000 0.000000
vn 0.000000 1.000000 0.000000
vn 0.000000 0.000000 -1.000000
vn 0.000000 0.000000 -1.000000
vn 0.000000 0.000000 -1.000000
vn 0.000000 0.000000 -1.000000
vn 0.000000 -1.000000 0.000000
vn 0.000000 -1.000000 0.000000
vn 0.000000 -1.000000 0.000000
vn 0.000000 -1.000000 0.000000
vn 1.000000 0.000000 0.000000
vn 1.000000 0.000000 0.000000
vn 1.000000 0.000000 0.000000
vn 1.000000 0.000000 0.000000
vn -1.000000 0.000000 0.000000
vn -1.000000 0.000000 0.000000
vn -1.000000 0.000000 0.000000
vn -1.000000 0.000000 0.000000
vn 0.000000 0.000000 1.000000
vn 0.000000 0.000000 1.000000
vn 0.000000 0.000000 1.000000
vn 0.000000 0.000000 1.000000
vn 0.000000 1.000000 0.000000
vn 0.000000 1.000000 0.000000
vn 0.000000 1.000000 0.000000
vn 0.000000 1.000000 0.000000
vn 0.000000 0.000000 -1.000000
vn 0.000000 0.000000 -1.000000
vn 0.000000 0.000000 -1.000000
vn 0.000000 0.000000 -1.000000
vn 0.000000 -1.000000 0.000000
vn 0.000000 -1.000000 0.000000
vn 0.000000 -1.000000 0.000000
vn 0.000000 -1.000000 0.000000
vn 1.000000 0.000000 0.000000
vn 1.000000 0.000000 0.000000
vn 1.000000 0.000000 0.000000
vn 1.000000 0.000000 0.000000
vn -1.000000 0.000000 0.000000
vn -1.000000 0.000000 0.000000
vn -1.000000 0.000000 0.000000
vn -1.000000 0.000000 0.000000
vn 0.000000 0.000000 1.000000
vn 0.000000 0.000000 1.000000
vn 0.000000 0.000000 1.000000
vn 0.000000 0.000000 1.000000
vn 0.000000 1.000000 0.000000
vn 0.000000 1.000000 0.000000
vn 0.000000 1.000000 0.000000
vn 0.000000 1.000000 0.000000
vn 0.000000 0.000000 -1.000000
vn 0.000000 0.000000 -1.000000
vn 0.000000 0.000000 -1.000000
vn 0.000000 0.000000 -1.000000
vn 0.000000 -1.000000 0.000000
vn 0.000000 -1.000000 0.000000
vn 0.000000 -1.000000 0.000000
vn 0.000000 -1.000000 0.000000
vn 1.000000 0.000000 0.000000
vn 1.000000 0.000000 0.000000
vn 1.000000 0.000000 0.000000
vn 1.000000 0.000000 0.000000
vn -1.000000 0.000000 0.000000
vn -1.000000 0.000000 0.000000
vn -1.000000 0.000000 0.000000
vn -1.000000 0.000000 0.000000
vn 1.000000 0.000000 0.000000
vn 1.000000 0.000000 0.000000
vn 1.000000 0.000000 0.000000
vn 1.000000 0.000000 0.000000
vn 0.000000 1.000000 0.000000
vn 0.000000 1.000000 0.000000
vn 0.000000 1.000000 0.000000
vn 0.000000 1.000000 0.000000
vn -1.000000 0.000000 0.000000
vn -1.000000 0.000000 0.000000
vn -1.000000 0.000000 0.000000
vn -1.000000 0.000000 0.000000
vn 0.000000 -1.000000 0.000000
vn 0.000000 -1.000000 0.000000
vn 0.000000 -1.000000 0.000000
vn 0.000000 -1.000000 0.000000
vn 0.000000 0.000000 -1.000000
vn 0.000000 0.000000 -1.000000
vn 0.000000 0.000000 -1.000000
vn 0.000000 0.000000 -1.000000
vn 0.000000 0.000000 1.000000
vn 0.000000 0.000000 1.000000
vn 0.000000 0.000000 1.000000
vn 0.000000 0.000000 1.000000
vn 0.000000 0.000000 1.000000
vn 0.000000 0.000000 1.000000
vn 0.000000 0.000000 1.000000
vn 0.000000 0.000000 1.000000
vn 0.000000 1.000000 0.000000
vn 0.000000 1.000000 0.000000
vn 0.000000 1.000000 0.000000
vn 0.000000 1.000000 0.000000
vn 0.000000 0.000000 -1.000000
vn 0.000000 0.000000 -1.000000
vn 0.000000 0.000000 -1.000000
vn 0.000000 0.000000 -1.000000
vn 0.000000 -1.000000 0.000000
vn 0.000000 -1.000000 0.000000
vn 0.000000 -1.000000 0.000000
vn 0.000000 -1.000000 0.000000
vn 1.000000 0.000000 0.000000
vn 1.000000 0.000000 0.000000
vn 1.000000 0.000000 0.000000
vn 1.000000 0.000000 0.000000
vn -1.000000 0.000000 0.000000
vn -1.000000 0.000000 0.000000
vn -1.000000 0.000000 0.000000
vn -1.000000 0.000000 0.000000
vn -1.000000 0.000000 0.000000
vn -1.000000 0.000000 0.000000
vn -1.000000 0.000000 0.000000
vn -1.000000 0.000000 0.000000
vn 0.000000 1.000000 0.000000
vn 0.000000 1.000000 0.000000
vn 0.000000 1.000000 0.000000
vn 0.000000 1.000000 0.000000
vn 1.000000 0.000000 0.000000
vn 1.000000 0.000000 0.000000
vn 1.000000 0.000000 0.000000
vn 1.000000 0.000000 0.000000
vn 0.000000 -1.000000 0.000000
vn 0.000000 -1.000000 0.000000
vn 0.000000 -1.000000 0.000000
vn 0.000000 -1.000000 0.000000
vn 0.000000 0.000000 1.000000
vn 0.000000 0.000000 1.000000
vn 0.000000 0.000000 1.000000
vn 0.000000 0.000000 1.000000
vn 0.000000 0.000000 -1.000000
vn 0.000000 0.000000 -1.000000
vn 0.000000 0.000000 -1.000000
vn 0.000000 0.000000 -1.000000
vn 0.000000 0.000000 -1.000000
vn 0.000000 0.000000 -1.000000
vn 0.000000 0.000000 -1.000000
vn 0.000000 0.000000 -1.000000
vn 0.000000 1.000000 0.000000
vn 0.000000 1.000000 0.000000
vn 0.000000 1.000000 0.000000
vn 0.000000 1.000000 0.000000
vn 0.000000 0.000000 1.000000
vn 0.000000 0.000000 1.000000
vn 0.000000 0.000000 1.000000
vn 0.000000 0.000000 1.000000
vn 0.000000 -1.000000 0.000000
vn 0.000000 -1.000000 0.000000
vn 0.000000 -1.000000 0.000000
vn 0.000000 -1.000000 0.000000
vn -1.000000 0.000000 0.000000
vn -1.000000 0.000000 0.000000
vn -1.000000 0.000000 0.000000
vn -1.000000 0.000000 0.000000
vn 1.000000 0.000000 0.000000
vn 1.000000 0.000000 0.000000
vn 1.000000 0.000000 0.000000
vn 1.000000 0.000000 0.000000
s off
g pCube9
usemtl initialShadingGroup
f 45/86/1 46/87/2 47/88/3 48/89/4
f 41/55/5 42/56/6 43/57/7 44/58/8
f 49/93/9 50/91/10 51/94/11 52/95/12
f 7/7/13 8/8/14 2/9/15 1/10/16
f 46/87/17 51/94/18 50/91/19 47/88/20
f 52/92/21 45/86/22 48/89/23 49/90/24
s 1
f 33/50/25 34/47/26 35/48/27 36/49/28
s 2
f 14/22/29 15/24/30 11/18/31 10/16/32
s 3
f 12/20/33 11/17/34 15/23/35 16/26/36
s 4
f 16/25/37 13/21/38 9/15/39 12/19/40
s 1
f 37/52/41 38/51/42 34/47/26 33/50/25
s 2
f 18/28/43 19/30/44 15/24/30 14/22/29
s 3
f 16/26/36 15/23/35 19/29/45 20/32/46
s 4
f 20/31/47 17/27/48 13/21/38 16/25/37
s 1
f 39/53/49 40/54/50 38/51/42 37/52/41
s 2
f 22/34/51 23/36/52 19/30/44 18/28/43
s 3
f 20/32/46 19/29/45 23/35/53 24/38/54
s 4
f 24/37/55 21/33/56 17/27/48 20/31/47
s off
f 1/1/57 2/2/58 22/11/59 21/13/60
s 2
f 2/2/61 8/105/62 23/106/52 22/11/51
s 3
f 24/109/54 23/106/53 8/105/63 7/110/64
s 4
f 7/108/65 1/1/66 21/13/56 24/107/55
s off
f 14/39/67 10/40/68 27/41/69 26/42/70
f 10/40/71 9/43/72 28/44/73 27/41/74
f 9/43/75 13/45/76 25/46/77 28/44/78
f 18/135/79 14/39/80 26/42/81 30/136/82
f 13/45/83 17/137/84 29/138/85 25/46/86
f 21/69/87 22/67/88 32/64/89 31/63/90
f 22/67/91 18/135/92 30/136/93 32/64/94
f 17/137/95 21/69/96 31/63/97 29/138/98
f 26/111/99 27/112/100 35/113/101 34/114/102
f 27/127/103 28/128/104 36/129/105 35/130/106
f 28/119/107 25/120/108 33/121/109 36/122/110
f 30/115/111 26/111/112 34/114/113 38/116/114
f 25/120/115 29/123/116 37/124/117 33/121/118
f 31/131/119 32/132/120 40/133/121 39/134/122
f 32/117/123 30/115/124 38/116/125 40/118/126
f 29/123/127 31/125/128 39/126/129 37/124/130
f 3/76/131 4/77/132 42/78/133 41/79/134
f 4/77/135 6/83/136 43/80/137 42/78/138
f 6/83/139 5/84/140 44/85/141 43/80/142
f 5/81/143 3/76/144 41/79/145 44/82/146
s 5
f 53/59/147 54/60/148 46/65/149 45/66/150
s off
f 4/3/151 3/4/152 48/5/153 47/6/154
f 5/12/155 6/14/156 50/61/157 49/62/158
s 6
f 55/97/159 56/98/160 52/99/161 51/100/162
s 7
f 54/60/163 55/97/164 51/100/165 46/65/166
s off
f 6/14/167 4/3/168 47/6/169 50/61/170
s 8
f 56/68/171 53/59/172 45/66/173 52/96/174
s off
f 3/4/175 5/12/176 49/62/177 48/5/178
s 5
f 9/70/179 10/71/180 54/72/148 53/73/147
s 7
f 10/71/181 11/74/182 55/75/164 54/72/163
s 6
f 11/74/183 12/103/184 56/104/160 55/75/159
s 8
f 12/101/185 9/70/186 53/73/172 56/102/171
s off
f 57/139/187 58/140/188 60/141/189 59/142/190
f 59/142/191 60/141/192 62/143/193 61/144/194
f 61/144/195 62/143/196 64/145/197 63/146/198
f 63/146/199 64/145/200 58/147/201 57/148/202
f 58/140/203 64/149/204 62/150/205 60/141/206
f 63/151/207 57/139/208 59/142/209 61/152/210
f 65/153/211 66/154/212 68/155/213 67/156/214
f 67/156/215 68/155/216 70/157/217 69/158/218
f 69/158/219 70/157/220 72/159/221 71/160/222
f 71/160/223 72/159/224 66/161/225 65/162/226
f 66/154/227 72/163/228 70/164/229 68/155/230
f 71/165/231 65/153/232 67/156/233 69/166/234
f 73/167/235 74/168/236 76/169/237 75/170/238
f 75/170/239 76/169/240 78/171/241 77/172/242
f 77/172/243 78/171/244 80/173/245 79/174/246
f 79/174/247 80/173/248 74/175/249 73/176/250
f 74/168/251 80/177/252 78/178/253 76/169/254
f 79/179/255 73/167/256 75/170/257 77/180/258
f 81/181/259 82/188/260 84/182/261 83/183/262
f 83//263 84//264 86//265 85//266
f 85/184/267 86/185/268 88/186/269 87/187/270
f 87/221/271 88/222/272 82/223/273 81/224/274
f 82/188/275 88/189/276 86/190/277 84/182/278
f 87/187/279 81/181/280 83/183/281 85/184/282
f 89/201/283 90/202/284 92/203/285 91/204/286
f 91//287 92//288 94//289 93//290
f 93/207/291 94/208/292 96/209/293 95/210/294
f 95/229/295 96/230/296 90/231/297 89/232/298
f 90/202/299 96/209/300 94/208/301 92/203/302
f 95/206/303 89/201/304 91/204/305 93/205/306
f 97/211/307 98/212/308 100/213/309 99/214/310
f 99//311 100//312 102//313 101//314
f 101/220/315 102/215/316 104/216/317 103/217/318
f 103/233/319 104/234/320 98/235/321 97/236/322
f 98/212/323 104/216/324 102/215/325 100/213/326
f 103/217/327 97/218/328 99/219/329 101/220/330
f 105/198/331 106/199/332 108/200/333 107/193/334
f 107//335 108//336 110//337 109//338
f 109/194/339 110/195/340 112/196/341 111/197/342
f 111/225/343 112/226/344 106/227/345 105/228/346
f 106/191/347 112/196/348 110/195/349 108/192/350
f 111/197/351 105/198/352 107/193/353 109/194/354
