# This file uses centimeters as units for non-parametric coordinates.

mtllib Lamp.mtl
g default
v 0.200436 1.036753 -0.378706
v 0.129416 1.036753 -0.518090
v 0.018801 1.036753 -0.628706
v -0.120584 1.036753 -0.699726
v -0.275092 1.036753 -0.724197
v -0.429601 1.036753 -0.699726
v -0.568985 1.036753 -0.628706
v -0.679601 1.036753 -0.518089
v -0.750621 1.036753 -0.378706
v -0.775092 1.036753 -0.224197
v -0.750621 1.036753 -0.069689
v -0.679601 1.036753 0.069696
v -0.568985 1.036753 0.180311
v -0.429601 1.036753 0.251332
v -0.275092 1.036753 0.275803
v -0.120584 1.036753 0.251332
v 0.018801 1.036753 0.180311
v 0.129416 1.036753 0.069696
v 0.200436 1.036753 -0.069689
v 0.224908 1.036753 -0.224197
v 0.200436 2.036753 -0.378706
v 0.129416 2.036753 -0.518090
v 0.018801 2.036753 -0.628706
v -0.120584 2.036753 -0.699726
v -0.275092 2.036753 -0.724197
v -0.429601 2.036753 -0.699726
v -0.568985 2.036753 -0.628706
v -0.679601 2.036753 -0.518089
v -0.750621 2.036753 -0.378706
v -0.775092 2.036753 -0.224197
v -0.750621 2.036753 -0.069689
v -0.679601 2.036753 0.069696
v -0.568985 2.036753 0.180311
v -0.429601 2.036753 0.251332
v -0.275092 2.036753 0.275803
v -0.120584 2.036753 0.251332
v 0.018801 2.036753 0.180311
v 0.129416 2.036753 0.069696
v 0.200436 2.036753 -0.069689
v 0.224908 2.036753 -0.224197
v -0.275092 1.036753 -0.224197
v -0.275092 2.036753 -0.224197
v -0.555027 0.059094 0.052551
v 0.004843 0.059094 0.052551
v -0.555027 0.618964 0.052551
v 0.004843 0.618964 0.052551
v -0.555027 0.618964 -0.507319
v 0.004843 0.618964 -0.507319
v -0.555027 0.059094 -0.507319
v 0.004843 0.059094 -0.507319
v -0.603806 0.146603 0.101329
v 0.053622 0.146603 0.101329
v 0.053622 0.146603 -0.556099
v -0.603806 0.146603 -0.556099
v -0.603806 0.552778 -0.556099
v 0.053622 0.552778 -0.556099
v 0.053622 0.552778 0.101329
v -0.603806 0.552778 0.101329
v -0.494230 0.618964 -0.008247
v -0.055955 0.618964 -0.008247
v -0.055955 0.618964 -0.446522
v -0.494230 0.618964 -0.446522
v -0.494230 0.618964 -0.008247
v -0.055955 0.618964 -0.008247
v -0.055955 0.618964 -0.446522
v -0.494230 0.618964 -0.446522
v -0.494230 0.689900 -0.008247
v -0.055955 0.689900 -0.008247
v -0.055955 0.689900 -0.446522
v -0.494230 0.689900 -0.446522
v -0.404518 0.689900 -0.097958
v -0.145666 0.689900 -0.097958
v -0.145666 0.689900 -0.356810
v -0.404518 0.689900 -0.356810
v -0.404518 0.619531 -0.097958
v -0.145666 0.619531 -0.097958
v -0.145666 0.619531 -0.356810
v -0.404518 0.619531 -0.356810
v -0.352042 0.619531 -0.150434
v -0.198142 0.619531 -0.150434
v -0.198142 0.619531 -0.304334
v -0.352042 0.619531 -0.304334
v -0.352042 1.486828 -0.150434
v -0.198142 1.486828 -0.150434
v -0.198142 1.486828 -0.304334
v -0.352042 1.486828 -0.304334
vt 0.863975 -0.636037
vt 0.891373 -0.636037
vt 0.891373 -0.052996
vt 0.863975 -0.052996
vt 0.918770 -0.636037
vt 0.918770 -0.052996
vt 0.946169 -0.052996
vt 0.425610 -0.636037
vt 0.425610 -0.052996
vt 0.453007 -0.636037
vt 0.453007 -0.052996
vt 0.480405 -0.636037
vt 0.480405 -0.052996
vt 0.507803 -0.636037
vt 0.507803 -0.052996
vt 0.535201 -0.636037
vt 0.535201 -0.052996
vt 0.562599 -0.636037
vt 0.562599 -0.052996
vt 0.589997 -0.636037
vt 0.589997 -0.052996
vt 0.617394 -0.636037
vt 0.617394 -0.052996
vt 0.644792 -0.636037
vt 0.644792 -0.052996
vt 0.672190 -0.636037
vt 0.672190 -0.052996
vt 0.699588 -0.636037
vt 0.699588 -0.052996
vt 0.726986 -0.636037
vt 0.726986 -0.052996
vt 0.754384 -0.636037
vt 0.754384 -0.052996
vt 0.781781 -0.636037
vt 0.781781 -0.052996
vt 0.809179 -0.636037
vt 0.809179 -0.052996
vt 0.836577 -0.636037
vt 0.836577 -0.052996
vt 0.946169 -0.636037
vt 0.973566 -0.636037
vt 0.973566 -0.052996
vt 0.923011 -0.733461
vt 0.886216 -0.721506
vt 0.866873 -0.843639
vt 0.847529 -0.721506
vt 0.810734 -0.733461
vt 0.779435 -0.756201
vt 0.756695 -0.787500
vt 0.744740 -0.824295
vt 0.744740 -0.862983
vt 0.756695 -0.899777
vt 0.779435 -0.931076
vt 0.810734 -0.953817
vt 0.847529 -0.965772
vt 0.886216 -0.965772
vt 0.923011 -0.953817
vt 0.954310 -0.931076
vt 0.977050 -0.899777
vt 0.989006 -0.862983
vt 0.989006 -0.824295
vt 0.977050 -0.787501
vt 0.954310 -0.756201
vt 0.989006 -0.824295
vt 0.977050 -0.787500
vt 0.866873 -0.843639
vt 0.989006 -0.862983
vt 0.977050 -0.899777
vt 0.954310 -0.931076
vt 0.923011 -0.953817
vt 0.886216 -0.965772
vt 0.847529 -0.965772
vt 0.810734 -0.953817
vt 0.779435 -0.931076
vt 0.756695 -0.899777
vt 0.744740 -0.862983
vt 0.744740 -0.824295
vt 0.756695 -0.787500
vt 0.779435 -0.756201
vt 0.810734 -0.733461
vt 0.847529 -0.721506
vt 0.886216 -0.721506
vt 0.923011 -0.733461
vt 0.954310 -0.756201
vt 0.114643 -0.361111
vt 0.207254 -0.361111
vt 0.207254 -0.261961
vt 0.114643 -0.261961
vt 0.392475 -0.261961
vt 0.299865 -0.261961
vt 0.299865 -0.361111
vt 0.392475 -0.361111
vt 0.412365 -0.973895
vt 0.720105 -0.973895
vt 0.720105 -0.666155
vt 0.412365 -0.666155
vt 0.022032 -0.361111
vt 0.022032 -0.261961
vt 0.119515 -0.479781
vt 0.213258 -0.479781
vt 0.213258 -0.364579
vt 0.119515 -0.364579
vt 0.307001 -0.479781
vt 0.307001 -0.364579
vt 0.400744 -0.364579
vt 0.400744 -0.479781
vt 0.025772 -0.479781
vt 0.025772 -0.364579
vt 0.392275 -0.487312
vt 0.302468 -0.487312
vt 0.302468 -0.590418
vt 0.392275 -0.590418
vt 0.212661 -0.590418
vt 0.212661 -0.487312
vt 0.122854 -0.590418
vt 0.122854 -0.487312
vt 0.033047 -0.590418
vt 0.033047 -0.487312
vt 0.120632 -0.880994
vt 0.310559 -0.880994
vt 0.289935 -0.860370
vt 0.141256 -0.860370
vt 0.310559 -0.691067
vt 0.289935 -0.711691
vt 0.120632 -0.691067
vt 0.141256 -0.711691
vt 0.113221 -0.255408
vt 0.202024 -0.255408
vt 0.202024 -0.140050
vt 0.113221 -0.140050
vt 0.290827 -0.255408
vt 0.290827 -0.140050
vt 0.379630 -0.255408
vt 0.379630 -0.140050
vt 0.024419 -0.255408
vt 0.024419 -0.140050
vt 0.031288 -0.970307
vt 0.399707 -0.970307
vt 0.324294 -0.894894
vt 0.106701 -0.894894
vt 0.399707 -0.601888
vt 0.324294 -0.677301
vt 0.031288 -0.601888
vt 0.106701 -0.677301
vt 0.247865 -0.738640
vt 0.217958 -0.738640
vt 0.217958 -0.822366
vt 0.247865 -0.822366
vt 0.188051 -0.738640
vt 0.188051 -0.822366
vt 0.158144 -0.738640
vt 0.158144 -0.822366
vt 0.277772 -0.738640
vt 0.277772 -0.822366
vt 0.113358 -0.121672
vt 0.208442 -0.121672
vt 0.208442 -0.015467
vt 0.113358 -0.015467
vt 0.303526 -0.121672
vt 0.303526 -0.015467
vt 0.398611 -0.121672
vt 0.398611 -0.015467
vt 0.018273 -0.121672
vt 0.018273 -0.015467
vn 0.951057 0.000000 -0.309017
vn 0.809017 0.000000 -0.587786
vn 0.809017 0.000000 -0.587786
vn 0.951057 0.000000 -0.309017
vn 0.587786 0.000000 -0.809017
vn 0.587786 0.000000 -0.809017
vn 0.309017 0.000000 -0.951057
vn 0.309017 0.000000 -0.951057
vn 0.000000 0.000000 -1.000000
vn 0.000000 0.000000 -1.000000
vn -0.309017 0.000000 -0.951057
vn -0.309017 0.000000 -0.951057
vn -0.587788 0.000000 -0.809015
vn -0.587788 0.000000 -0.809015
vn -0.809017 0.000000 -0.587785
vn -0.809017 0.000000 -0.587785
vn -0.951056 0.000000 -0.309017
vn -0.951056 0.000000 -0.309017
vn -1.000000 0.000000 0.000000
vn -1.000000 0.000000 0.000000
vn -0.951057 0.000000 0.309017
vn -0.951057 0.000000 0.309017
vn -0.809017 0.000000 0.587785
vn -0.809017 0.000000 0.587785
vn -0.587786 0.000000 0.809017
vn -0.587786 0.000000 0.809017
vn -0.309017 0.000000 0.951057
vn -0.309017 0.000000 0.951057
vn 0.000000 0.000000 1.000000
vn 0.000000 0.000000 1.000000
vn 0.309017 0.000000 0.951057
vn 0.309017 0.000000 0.951057
vn 0.587786 0.000000 0.809017
vn 0.587786 0.000000 0.809017
vn 0.809017 0.000000 0.587785
vn 0.809017 0.000000 0.587785
vn 0.951057 0.000000 0.309017
vn 0.951057 0.000000 0.309017
vn 1.000000 0.000000 0.000002
vn 1.000000 0.000000 0.000002
vn 0.000000 -1.000000 0.000000
vn 0.000000 -1.000000 0.000000
vn 0.000000 -1.000000 0.000000
vn 0.000000 -1.000000 0.000000
vn 0.000000 -1.000000 0.000000
vn 0.000000 -1.000000 0.000000
vn 0.000000 -1.000000 0.000000
vn 0.000000 -1.000000 0.000000
vn 0.000000 -1.000000 0.000000
vn 0.000000 -1.000000 0.000000
vn 0.000000 -1.000000 0.000000
vn 0.000000 -1.000000 0.000000
vn 0.000000 -1.000000 0.000000
vn 0.000000 -1.000000 0.000000
vn 0.000000 -1.000000 0.000000
vn 0.000000 -1.000000 0.000000
vn 0.000000 -1.000000 0.000000
vn 0.000000 -1.000000 0.000000
vn 0.000000 -1.000000 0.000000
vn 0.000000 -1.000000 0.000000
vn 0.000000 -1.000000 0.000000
vn 0.000000 1.000000 0.000000
vn 0.000000 1.000000 0.000000
vn 0.000000 1.000000 0.000000
vn 0.000000 1.000000 0.000000
vn 0.000000 1.000000 0.000000
vn 0.000000 1.000000 0.000000
vn 0.000000 1.000000 0.000000
vn 0.000000 1.000000 0.000000
vn 0.000000 1.000000 0.000000
vn 0.000000 1.000000 0.000000
vn 0.000000 1.000000 0.000000
vn 0.000000 1.000000 0.000000
vn 0.000000 1.000000 0.000000
vn 0.000000 1.000000 0.000000
vn 0.000000 1.000000 0.000000
vn 0.000000 1.000000 0.000000
vn 0.000000 1.000000 0.000000
vn 0.000000 1.000000 0.000000
vn 0.000000 1.000000 0.000000
vn 0.000000 1.000000 0.000000
vn 0.000000 1.000000 0.000000
vn 0.000000 -0.069113 0.997609
vn 0.000000 -0.069113 0.997609
vn 0.000000 0.066506 0.997786
vn 0.000000 0.066506 0.997786
vn 0.000000 1.000000 0.000000
vn 0.000000 1.000000 0.000000
vn 0.000000 1.000000 0.000000
vn 0.000000 1.000000 0.000000
vn 0.000000 0.066507 -0.997786
vn 0.000000 0.066507 -0.997786
vn 0.000000 -0.069114 -0.997609
vn 0.000000 -0.069114 -0.997609
vn 0.000000 -1.000000 0.000000
vn 0.000000 -1.000000 0.000000
vn 0.000000 -1.000000 0.000000
vn 0.000000 -1.000000 0.000000
vn 0.997609 -0.069114 0.000000
vn 0.997609 -0.069114 0.000000
vn 0.997786 0.066507 -0.000000
vn 0.997786 0.066508 -0.000000
vn -0.997609 -0.069113 0.000000
vn -0.997609 -0.069114 0.000000
vn -0.997786 0.066507 -0.000000
vn -0.997786 0.066506 -0.000000
vn 0.000000 -0.486879 0.873470
vn 0.000000 -0.486879 0.873470
vn 0.873468 -0.486882 0.000000
vn 0.873468 -0.486882 0.000000
vn 0.000000 -0.486886 -0.873465
vn 0.000000 -0.486886 -0.873465
vn -0.873468 -0.486881 0.000000
vn -0.873468 -0.486881 0.000000
vn 0.000000 0.593290 -0.804989
vn 0.000000 0.593290 -0.804989
vn 0.804990 0.593288 -0.000000
vn 0.804990 0.593288 -0.000000
vn 0.000000 0.593282 0.804995
vn 0.000000 0.593282 0.804995
vn -0.804993 0.593284 -0.000000
vn -0.804993 0.593284 -0.000000
vn 0.000000 1.000000 -0.000000
vn 0.000000 1.000000 -0.000000
vn 0.000000 1.000000 -0.000000
vn 0.000000 1.000000 -0.000000
vn 0.000000 1.000000 0.000000
vn 0.000000 1.000000 0.000000
vn 0.000000 1.000000 0.000000
vn 0.000000 1.000000 0.000000
vn 0.000000 1.000000 0.000000
vn 0.000000 1.000000 0.000000
vn 0.000000 1.000000 0.000000
vn 0.000000 1.000000 0.000000
vn 0.000000 1.000000 0.000000
vn 0.000000 1.000000 0.000000
vn 0.000000 1.000000 0.000000
vn 0.000000 1.000000 0.000000
vn 0.000000 0.000000 0.000000
vn 0.000000 0.000000 0.000000
vn 0.000000 0.000000 0.000000
vn 0.000000 0.000000 0.000000
vn 0.000000 0.000000 0.000000
vn 0.000000 0.000000 0.000000
vn 0.000000 0.000000 0.000000
vn 0.000000 0.000000 0.000000
vn 0.000000 0.000000 0.000000
vn 0.000000 0.000000 0.000000
vn 0.000000 0.000000 0.000000
vn 0.000000 0.000000 0.000000
vn 0.000000 0.000000 0.000000
vn 0.000000 0.000000 0.000000
vn 0.000000 0.000000 0.000000
vn 0.000000 0.000000 0.000000
vn 0.000000 0.000000 1.000000
vn 0.000000 0.000000 1.000000
vn 0.000000 0.000000 1.000000
vn 0.000000 0.000000 1.000000
vn 1.000000 0.000000 0.000000
vn 1.000000 0.000000 0.000000
vn 1.000000 0.000000 0.000000
vn 1.000000 0.000000 0.000000
vn 0.000000 0.000000 -1.000000
vn 0.000000 0.000000 -1.000000
vn 0.000000 0.000000 -1.000000
vn 0.000000 0.000000 -1.000000
vn -1.000000 0.000000 0.000000
vn -1.000000 0.000000 0.000000
vn -1.000000 0.000000 0.000000
vn -1.000000 0.000000 0.000000
vn 0.000000 1.000000 -0.000000
vn 0.000000 1.000000 -0.000000
vn 0.000000 1.000000 -0.000000
vn 0.000000 1.000000 -0.000000
vn 0.000000 1.000000 0.000000
vn 0.000000 1.000000 0.000000
vn 0.000000 1.000000 0.000000
vn 0.000000 1.000000 0.000000
vn 0.000000 1.000000 0.000000
vn 0.000000 1.000000 0.000000
vn 0.000000 1.000000 0.000000
vn 0.000000 1.000000 0.000000
vn 0.000000 1.000000 0.000000
vn 0.000000 1.000000 0.000000
vn 0.000000 1.000000 0.000000
vn 0.000000 1.000000 0.000000
vn 0.000000 0.000000 -1.000000
vn 0.000000 0.000000 -1.000000
vn 0.000000 0.000000 -1.000000
vn 0.000000 0.000000 -1.000000
vn -1.000000 0.000000 0.000000
vn -1.000000 0.000000 0.000000
vn -1.000000 0.000000 0.000000
vn -1.000000 0.000000 0.000000
vn 0.000000 0.000000 1.000000
vn 0.000000 0.000000 1.000000
vn 0.000000 0.000000 1.000000
vn 0.000000 0.000000 1.000000
vn 1.000000 0.000000 0.000000
vn 1.000000 0.000000 0.000000
vn 1.000000 0.000000 0.000000
vn 1.000000 0.000000 0.000000
vn 0.000000 1.000000 0.000000
vn 0.000000 1.000000 0.000000
vn 0.000000 1.000000 0.000000
vn 0.000000 1.000000 0.000000
vn 0.000000 1.000000 0.000000
vn 0.000000 1.000000 0.000000
vn 0.000000 1.000000 0.000000
vn 0.000000 1.000000 0.000000
vn 0.000000 1.000000 -0.000000
vn 0.000000 1.000000 -0.000000
vn 0.000000 1.000000 -0.000000
vn 0.000000 1.000000 -0.000000
vn 0.000000 1.000000 0.000000
vn 0.000000 1.000000 0.000000
vn 0.000000 1.000000 0.000000
vn 0.000000 1.000000 0.000000
vn 0.000000 0.000000 1.000000
vn 0.000000 0.000000 1.000000
vn 0.000000 0.000000 1.000000
vn 0.000000 0.000000 1.000000
vn 1.000000 0.000000 0.000000
vn 1.000000 0.000000 0.000000
vn 1.000000 0.000000 0.000000
vn 1.000000 0.000000 0.000000
vn 0.000000 0.000000 -1.000000
vn 0.000000 0.000000 -1.000000
vn 0.000000 0.000000 -1.000000
vn 0.000000 0.000000 -1.000000
vn -1.000000 0.000000 0.000000
vn -1.000000 0.000000 0.000000
vn -1.000000 0.000000 0.000000
vn -1.000000 0.000000 0.000000
s 1
g pCylinder3 LivingroomSet
usemtl initialShadingGroup
f 1/1/1 2/2/2 22/3/3 21/4/4
f 2/2/2 3/5/5 23/6/6 22/3/3
f 3/5/5 4/40/7 24/7/8 23/6/6
f 4/40/7 5/41/9 25/42/10 24/7/8
f 5/8/9 6/10/11 26/11/12 25/9/10
f 6/10/11 7/12/13 27/13/14 26/11/12
f 7/12/13 8/14/15 28/15/16 27/13/14
f 8/14/15 9/16/17 29/17/18 28/15/16
f 9/16/17 10/18/19 30/19/20 29/17/18
f 10/18/19 11/20/21 31/21/22 30/19/20
f 11/20/21 12/22/23 32/23/24 31/21/22
f 12/22/23 13/24/25 33/25/26 32/23/24
f 13/24/25 14/26/27 34/27/28 33/25/26
f 14/26/27 15/28/29 35/29/30 34/27/28
f 15/28/29 16/30/31 36/31/32 35/29/30
f 16/30/31 17/32/33 37/33/34 36/31/32
f 17/32/33 18/34/35 38/35/36 37/33/34
f 18/34/35 19/36/37 39/37/38 38/35/36
f 19/36/37 20/38/39 40/39/40 39/37/38
f 20/38/39 1/1/1 21/4/4 40/39/40
s 2
f 2/64/41 1/65/42 41/66/43
f 3/67/44 2/64/41 41/66/43
f 4/68/45 3/67/44 41/66/43
f 5/69/46 4/68/45 41/66/43
f 6/70/47 5/69/46 41/66/43
f 7/71/48 6/70/47 41/66/43
f 8/72/49 7/71/48 41/66/43
f 9/73/50 8/72/49 41/66/43
f 10/74/51 9/73/50 41/66/43
f 11/75/52 10/74/51 41/66/43
f 12/76/53 11/75/52 41/66/43
f 13/77/54 12/76/53 41/66/43
f 14/78/55 13/77/54 41/66/43
f 15/79/56 14/78/55 41/66/43
f 16/80/57 15/79/56 41/66/43
f 17/81/58 16/80/57 41/66/43
f 18/82/59 17/81/58 41/66/43
f 19/83/60 18/82/59 41/66/43
f 20/84/61 19/83/60 41/66/43
f 1/65/42 20/84/61 41/66/43
s 3
f 21/43/62 22/44/63 42/45/64
f 22/44/63 23/46/65 42/45/64
f 23/46/65 24/47/66 42/45/64
f 24/47/66 25/48/67 42/45/64
f 25/48/67 26/49/68 42/45/64
f 26/49/68 27/50/69 42/45/64
f 27/50/69 28/51/70 42/45/64
f 28/51/70 29/52/71 42/45/64
f 29/52/71 30/53/72 42/45/64
f 30/53/72 31/54/73 42/45/64
f 31/54/73 32/55/74 42/45/64
f 32/55/74 33/56/75 42/45/64
f 33/56/75 34/57/76 42/45/64
f 34/57/76 35/58/77 42/45/64
f 35/58/77 36/59/78 42/45/64
f 36/59/78 37/60/79 42/45/64
f 37/60/79 38/61/80 42/45/64
f 38/61/80 39/62/81 42/45/64
f 39/62/81 40/63/82 42/45/64
f 40/63/82 21/43/62 42/45/64
s 4
f 51/85/83 52/86/84 57/87/85 58/88/86
s off
f 83//87 84//88 85//89 86//90
s 5
f 55/89/91 56/90/92 53/91/93 54/92/94
s off
f 49/93/95 50/94/96 44/95/97 43/96/98
s 6
f 52/86/99 53/91/100 56/90/101 57/87/102
s 7
f 54/97/103 51/85/104 58/88/105 55/98/106
s 4
f 43/99/107 44/100/108 52/101/84 51/102/83
s 6
f 44/100/109 50/103/110 53/104/100 52/101/99
s 5
f 54/105/94 53/104/93 50/103/111 49/106/112
s 7
f 49/107/113 43/99/114 51/102/104 54/108/103
s 5
f 47/109/115 48/110/116 56/111/92 55/112/91
s 6
f 57/113/102 56/111/101 48/110/117 46/114/118
s 4
f 58/115/86 57/113/85 46/114/119 45/116/120
s 7
f 55/117/106 58/115/105 45/116/121 47/118/122
s off
f 45/119/123 46/120/124 60/121/125 59/122/126
f 46/120/127 48/123/128 61/124/129 60/121/130
f 48/123/131 47/125/132 62/126/133 61/124/134
f 47/125/135 45/119/136 59/122/137 62/126/138
f 59//139 60//140 64//141 63//142
f 60//143 61//144 65//145 64//146
f 61//147 62//148 66//149 65//150
f 62//151 59//152 63//153 66//154
f 63/127/155 64/128/156 68/129/157 67/130/158
f 64/128/159 65/131/160 69/132/161 68/129/162
f 65/131/163 66/133/164 70/134/165 69/132/166
f 66/135/167 63/127/168 67/130/169 70/136/170
f 67/137/171 68/138/172 72/139/173 71/140/174
f 68/138/175 69/141/176 73/142/177 72/139/178
f 69/141/179 70/143/180 74/144/181 73/142/182
f 70/143/183 67/137/184 71/140/185 74/144/186
f 71/145/187 72/146/188 76/147/189 75/148/190
f 72/146/191 73/149/192 77/150/193 76/147/194
f 73/149/195 74/151/196 78/152/197 77/150/198
f 74/153/199 71/145/200 75/148/201 78/154/202
f 75//203 76//204 80//205 79//206
f 76//207 77//208 81//209 80//210
f 77//211 78//212 82//213 81//214
f 78//215 75//216 79//217 82//218
f 79/155/219 80/156/220 84/157/221 83/158/222
f 80/156/223 81/159/224 85/160/225 84/157/226
f 81/159/227 82/161/228 86/162/229 85/160/230
f 82/163/231 79/155/232 83/158/233 86/164/234
