# This file uses centimeters as units for non-parametric coordinates.

mtllib oven.mtl
g default
v 1.649938 2.250650 0.009922
v 1.590656 2.309932 0.009922
v 1.509676 2.331630 0.009922
v 1.428696 2.309932 0.009922
v 1.369414 2.250650 0.009922
v 1.347715 2.169670 0.009922
v 1.369414 2.088690 0.009922
v 1.428696 2.029409 0.009922
v 1.509676 2.007710 0.009922
v 1.590656 2.029409 0.009922
v 1.649938 2.088690 0.009922
v 1.671637 2.169670 0.009922
v 1.649938 2.250650 0.171883
v 1.590656 2.309932 0.171883
v 1.509676 2.331630 0.171883
v 1.428696 2.309932 0.171883
v 1.369414 2.250650 0.171883
v 1.347715 2.169670 0.171883
v 1.369414 2.088690 0.171883
v 1.428696 2.029409 0.171883
v 1.509676 2.007710 0.171883
v 1.590656 2.029409 0.171883
v 1.649938 2.088690 0.171883
v 1.671637 2.169670 0.171883
v 1.509676 2.169670 0.171883
v 0.549937 2.250650 0.009922
v 0.490656 2.309932 0.009922
v 0.409676 2.331630 0.009922
v 0.328695 2.309932 0.009922
v 0.269414 2.250650 0.009922
v 0.247715 2.169670 0.009922
v 0.269414 2.088690 0.009922
v 0.328695 2.029409 0.009922
v 0.409676 2.007710 0.009922
v 0.490656 2.029409 0.009922
v 0.549937 2.088690 0.009922
v 0.571636 2.169670 0.009922
v 0.549937 2.250650 0.171883
v 0.490656 2.309932 0.171883
v 0.409676 2.331630 0.171883
v 0.328695 2.309932 0.171883
v 0.269414 2.250650 0.171883
v 0.247715 2.169670 0.171883
v 0.269414 2.088690 0.171883
v 0.328695 2.029409 0.171883
v 0.409676 2.007710 0.171883
v 0.490656 2.029409 0.171883
v 0.549937 2.088690 0.171883
v 0.571636 2.169670 0.171883
v 0.409676 2.169670 0.171883
v 0.072176 0.072605 0.009922
v 1.759676 0.072605 0.009922
v 0.072176 1.197605 0.009922
v 1.759676 1.197605 0.009922
v 0.072176 1.197605 -1.115077
v 1.759676 1.197605 -1.115077
v 0.072176 0.072605 -1.115077
v 1.759676 0.072605 -1.115077
v 0.072176 2.331631 0.009922
v 1.759676 2.331631 0.009922
v 0.072176 2.331631 -1.115077
v 1.759676 2.331631 -1.115077
v 0.249464 0.209937 0.109922
v 1.582388 0.209937 0.109922
v 1.582388 1.098553 0.109922
v 0.249464 1.098553 0.109922
v 0.249464 1.305683 0.109922
v 1.582388 1.305683 0.109922
v 1.582388 2.194299 0.109922
v 0.249464 2.194299 0.109922
vt 0.049832 1.013088
vt 0.126551 1.013088
vt 0.203269 1.013088
vt 0.279988 1.013088
vt 0.356707 1.013088
vt 0.433425 1.013088
vt 0.510144 1.013088
vt 0.586862 1.013088
vt 0.663581 1.013088
vt 0.740299 1.013088
vt 0.817017 1.013088
vt 0.893736 1.013088
vt 0.970454 1.013088
vt 0.049832 1.553619
vt 0.126551 1.553619
vt 0.203269 1.553619
vt 0.279988 1.553619
vt 0.356707 1.553619
vt 0.433425 1.553619
vt 0.510144 1.553619
vt 0.586862 1.553619
vt 0.663581 1.553619
vt 0.740299 1.553619
vt 0.817017 1.553619
vt 0.893736 1.553619
vt 0.970454 1.553619
vt 0.424587 1.679317
vt 0.349282 1.604013
vt 0.246414 1.576449
vt 0.143547 1.604013
vt 0.068242 1.679317
vt 0.040679 1.782185
vt 0.068242 1.885052
vt 0.143547 1.960357
vt 0.246414 1.987920
vt 0.349282 1.960357
vt 0.424587 1.885052
vt 0.452150 1.782185
vt 0.246414 1.773955
vt 0.049832 1.013088
vt 0.126551 1.013088
vt 0.126551 1.553619
vt 0.049832 1.553619
vt 0.203269 1.013088
vt 0.203269 1.553619
vt 0.279988 1.013088
vt 0.279988 1.553619
vt 0.356707 1.013088
vt 0.356707 1.553619
vt 0.433425 1.013088
vt 0.433425 1.553619
vt 0.510144 1.013088
vt 0.510144 1.553619
vt 0.586862 1.013088
vt 0.586862 1.553619
vt 0.663581 1.013088
vt 0.663581 1.553619
vt 0.740299 1.013088
vt 0.740299 1.553619
vt 0.817017 1.013088
vt 0.817017 1.553619
vt 0.893736 1.013088
vt 0.893736 1.553619
vt 0.970454 1.013088
vt 0.970454 1.553619
vt 0.424587 1.885052
vt 0.349282 1.960357
vt 0.246414 1.773955
vt 0.246414 1.987920
vt 0.143547 1.960357
vt 0.068242 1.885052
vt 0.040679 1.782185
vt 0.068242 1.679317
vt 0.143547 1.604013
vt 0.246414 1.576449
vt 0.349282 1.604013
vt 0.424587 1.679317
vt 0.452150 1.782185
vt 0.242947 0.587402
vt 0.482800 0.587402
vt 0.482800 0.947007
vt 0.242947 0.947007
vt 0.954777 0.987091
vt 0.681501 0.987091
vt 0.681501 0.531826
vt 0.954777 0.531826
vt 0.037444 0.036795
vt 0.958296 0.036795
vt 0.958296 0.500770
vt 0.037444 0.500770
vt 0.511404 0.531826
vt 0.511404 0.987091
vt 0.044246 0.531826
vt 0.214343 0.531826
vt 0.214343 0.987091
vt 0.044246 0.987091
vt 0.242947 0.575215
vt 0.482801 0.575215
vt 0.482801 0.931958
vt 0.242947 0.931958
vt 0.037444 0.036795
vt 0.958296 0.036795
vt 0.958296 0.500770
vt 0.037444 0.500770
vt 0.954777 0.987091
vt 0.681501 0.987091
vt 0.681501 0.531826
vt 0.954777 0.531826
vt 0.511404 0.531826
vt 0.511404 0.987091
vt 0.044246 0.531826
vt 0.214343 0.531826
vt 0.214343 0.987091
vt 0.044246 0.987091
vn 0.707108 0.707106 0.000000
vn 0.707108 0.707106 0.000000
vn 0.707108 0.707106 0.000000
vn 0.707108 0.707106 0.000000
vn 0.258818 0.965926 0.000000
vn 0.258818 0.965926 0.000000
vn 0.258818 0.965926 0.000000
vn 0.258818 0.965926 0.000000
vn -0.258818 0.965926 0.000000
vn -0.258818 0.965926 0.000000
vn -0.258818 0.965926 0.000000
vn -0.258818 0.965926 0.000000
vn -0.707108 0.707105 0.000000
vn -0.707108 0.707105 0.000000
vn -0.707108 0.707105 0.000000
vn -0.707108 0.707105 0.000000
vn -0.965925 0.258823 0.000000
vn -0.965925 0.258823 0.000000
vn -0.965925 0.258823 0.000000
vn -0.965925 0.258823 0.000000
vn -0.965925 -0.258823 0.000000
vn -0.965925 -0.258823 0.000000
vn -0.965925 -0.258823 0.000000
vn -0.965925 -0.258823 0.000000
vn -0.707108 -0.707105 0.000000
vn -0.707108 -0.707105 0.000000
vn -0.707108 -0.707105 0.000000
vn -0.707108 -0.707105 0.000000
vn -0.258818 -0.965926 0.000000
vn -0.258818 -0.965926 0.000000
vn -0.258818 -0.965926 0.000000
vn -0.258818 -0.965926 0.000000
vn 0.258818 -0.965926 0.000000
vn 0.258818 -0.965926 0.000000
vn 0.258818 -0.965926 0.000000
vn 0.258818 -0.965926 0.000000
vn 0.707108 -0.707106 0.000000
vn 0.707108 -0.707106 0.000000
vn 0.707108 -0.707106 0.000000
vn 0.707108 -0.707106 0.000000
vn 0.965925 -0.258822 0.000000
vn 0.965925 -0.258822 0.000000
vn 0.965925 -0.258822 0.000000
vn 0.965925 -0.258822 0.000000
vn 0.965925 0.258822 0.000000
vn 0.965925 0.258822 0.000000
vn 0.965925 0.258822 0.000000
vn 0.965925 0.258822 0.000000
vn 0.000000 0.000000 1.000000
vn 0.000000 0.000000 1.000000
vn 0.000000 0.000000 1.000000
vn 0.000000 0.000000 1.000000
vn 0.000000 0.000000 1.000000
vn 0.000000 0.000000 1.000000
vn 0.000000 0.000000 1.000000
vn -0.000000 0.000000 1.000000
vn -0.000000 0.000000 1.000000
vn 0.000000 0.000000 1.000000
vn 0.000000 0.000000 1.000000
vn 0.000000 0.000000 1.000000
vn 0.000000 0.000000 1.000000
vn 0.707108 0.707105 0.000000
vn 0.707108 0.707105 0.000000
vn 0.707108 0.707105 0.000000
vn 0.707108 0.707105 0.000000
vn 0.258817 0.965926 0.000000
vn 0.258817 0.965926 0.000000
vn 0.258817 0.965926 0.000000
vn 0.258817 0.965926 0.000000
vn -0.258818 0.965926 0.000000
vn -0.258818 0.965926 0.000000
vn -0.258818 0.965926 0.000000
vn -0.258818 0.965926 0.000000
vn -0.707108 0.707105 0.000000
vn -0.707108 0.707105 0.000000
vn -0.707108 0.707105 0.000000
vn -0.707108 0.707105 0.000000
vn -0.965925 0.258824 0.000000
vn -0.965925 0.258824 0.000000
vn -0.965925 0.258824 0.000000
vn -0.965925 0.258824 0.000000
vn -0.965925 -0.258824 0.000000
vn -0.965925 -0.258824 0.000000
vn -0.965925 -0.258824 0.000000
vn -0.965925 -0.258824 0.000000
vn -0.707108 -0.707105 0.000000
vn -0.707108 -0.707105 0.000000
vn -0.707108 -0.707105 0.000000
vn -0.707108 -0.707105 0.000000
vn -0.258818 -0.965926 0.000000
vn -0.258818 -0.965926 0.000000
vn -0.258818 -0.965926 0.000000
vn -0.258818 -0.965926 0.000000
vn 0.258817 -0.965926 0.000000
vn 0.258817 -0.965926 0.000000
vn 0.258817 -0.965926 0.000000
vn 0.258817 -0.965926 0.000000
vn 0.707108 -0.707105 0.000000
vn 0.707108 -0.707105 0.000000
vn 0.707108 -0.707105 0.000000
vn 0.707108 -0.707105 0.000000
vn 0.965925 -0.258823 0.000000
vn 0.965925 -0.258823 0.000000
vn 0.965925 -0.258823 0.000000
vn 0.965925 -0.258823 0.000000
vn 0.965925 0.258823 0.000000
vn 0.965925 0.258823 0.000000
vn 0.965925 0.258823 0.000000
vn 0.965925 0.258823 0.000000
vn 0.000000 0.000000 1.000000
vn 0.000000 0.000000 1.000000
vn 0.000000 0.000000 1.000000
vn 0.000000 0.000000 1.000000
vn 0.000000 0.000000 1.000000
vn 0.000000 0.000000 1.000000
vn 0.000000 0.000000 1.000000
vn -0.000000 0.000000 1.000000
vn -0.000000 0.000000 1.000000
vn 0.000000 0.000000 1.000000
vn 0.000000 0.000000 1.000000
vn 0.000000 0.000000 1.000000
vn 0.000000 0.000000 1.000000
vn 0.000000 0.000000 1.000000
vn 0.000000 0.000000 1.000000
vn 0.000000 0.000000 1.000000
vn 0.000000 0.000000 1.000000
vn 0.000000 0.000000 -1.000000
vn 0.000000 0.000000 -1.000000
vn 0.000000 0.000000 -1.000000
vn 0.000000 0.000000 -1.000000
vn 0.000000 -1.000000 0.000000
vn 0.000000 -1.000000 0.000000
vn 0.000000 -1.000000 0.000000
vn 0.000000 -1.000000 0.000000
vn 1.000000 0.000000 0.000000
vn 1.000000 0.000000 0.000000
vn 1.000000 0.000000 0.000000
vn 1.000000 0.000000 0.000000
vn -1.000000 0.000000 0.000000
vn -1.000000 0.000000 0.000000
vn -1.000000 0.000000 0.000000
vn -1.000000 0.000000 0.000000
vn 0.000000 0.000000 1.000000
vn 0.000000 0.000000 1.000000
vn 0.000000 0.000000 1.000000
vn 0.000000 0.000000 1.000000
vn 0.000000 1.000000 0.000000
vn 0.000000 1.000000 0.000000
vn 0.000000 1.000000 0.000000
vn 0.000000 1.000000 0.000000
vn 0.000000 0.000000 -1.000000
vn 0.000000 0.000000 -1.000000
vn 0.000000 0.000000 -1.000000
vn 0.000000 0.000000 -1.000000
vn 1.000000 0.000000 0.000000
vn 1.000000 0.000000 0.000000
vn 1.000000 0.000000 0.000000
vn 1.000000 0.000000 0.000000
vn -1.000000 0.000000 0.000000
vn -1.000000 0.000000 0.000000
vn -1.000000 0.000000 0.000000
vn -1.000000 0.000000 0.000000
vn 0.000000 -0.588642 0.808394
vn 0.000000 -0.588642 0.808394
vn 0.000000 -0.588642 0.808394
vn 0.000000 -0.588642 0.808394
vn 0.491289 0.000000 0.870997
vn 0.491289 0.000000 0.870997
vn 0.491289 0.000000 0.870997
vn 0.491289 0.000000 0.870997
vn 0.000000 0.710467 0.703730
vn 0.000000 0.710467 0.703730
vn 0.000000 0.710467 0.703730
vn 0.000000 0.710467 0.703730
vn -0.491289 0.000000 0.870997
vn -0.491289 0.000000 0.870997
vn -0.491289 0.000000 0.870997
vn -0.491289 0.000000 0.870997
vn 0.000000 -0.679146 0.734003
vn 0.000000 -0.679146 0.734003
vn 0.000000 -0.679147 0.734003
vn 0.000000 -0.679147 0.734003
vn 0.491289 0.000000 0.870997
vn 0.491289 0.000000 0.870997
vn 0.491289 0.000000 0.870997
vn 0.491289 0.000000 0.870997
vn 0.000000 0.588642 0.808394
vn 0.000000 0.588642 0.808394
vn 0.000000 0.588642 0.808394
vn 0.000000 0.588642 0.808394
vn -0.491289 0.000000 0.870997
vn -0.491289 0.000000 0.870997
vn -0.491289 0.000000 0.870997
vn -0.491289 0.000000 0.870997
s off
g pCylinder14
usemtl initialShadingGroup
f 1/1/1 2/2/2 14/15/3 13/14/4
f 2/2/5 3/3/6 15/16/7 14/15/8
f 3/3/9 4/4/10 16/17/11 15/16/12
f 4/4/13 5/5/14 17/18/15 16/17/16
f 5/5/17 6/6/18 18/19/19 17/18/20
f 6/6/21 7/7/22 19/20/23 18/19/24
f 7/7/25 8/8/26 20/21/27 19/20/28
f 8/8/29 9/9/30 21/22/31 20/21/32
f 9/9/33 10/10/34 22/23/35 21/22/36
f 10/10/37 11/11/38 23/24/39 22/23/40
f 11/11/41 12/12/42 24/25/43 23/24/44
f 12/12/45 1/13/46 13/26/47 24/25/48
s 1
f 13/37/49 14/36/50 25/39/51
f 14/36/50 15/35/52 25/39/51
f 15/35/52 16/34/53 25/39/51
f 16/34/53 17/33/54 25/39/51
f 17/33/54 18/32/55 25/39/51
f 18/32/55 19/31/56 25/39/51
f 19/31/56 20/30/57 25/39/51
f 20/30/57 21/29/58 25/39/51
f 21/29/58 22/28/59 25/39/51
f 22/28/59 23/27/60 25/39/51
f 23/27/60 24/38/61 25/39/51
f 24/38/61 13/37/49 25/39/51
s off
f 26/40/62 27/41/63 39/42/64 38/43/65
f 27/41/66 28/44/67 40/45/68 39/42/69
f 28/44/70 29/46/71 41/47/72 40/45/73
f 29/46/74 30/48/75 42/49/76 41/47/77
f 30/48/78 31/50/79 43/51/80 42/49/81
f 31/50/82 32/52/83 44/53/84 43/51/85
f 32/52/86 33/54/87 45/55/88 44/53/89
f 33/54/90 34/56/91 46/57/92 45/55/93
f 34/56/94 35/58/95 47/59/96 46/57/97
f 35/58/98 36/60/99 48/61/100 47/59/101
f 36/60/102 37/62/103 49/63/104 48/61/105
f 37/62/106 26/64/107 38/65/108 49/63/109
s 2
f 38/66/110 39/67/111 50/68/112
f 39/67/111 40/69/113 50/68/112
f 40/69/113 41/70/114 50/68/112
f 41/70/114 42/71/115 50/68/112
f 42/71/115 43/72/116 50/68/112
f 43/72/116 44/73/117 50/68/112
f 44/73/117 45/74/118 50/68/112
f 45/74/118 46/75/119 50/68/112
f 46/75/119 47/76/120 50/68/112
f 47/76/120 48/77/121 50/68/112
f 48/77/121 49/78/122 50/68/112
f 49/78/122 38/66/110 50/68/112
s off
f 63/79/123 64/80/124 65/81/125 66/82/126
f 55/83/127 56/84/128 58/85/129 57/86/130
f 57/87/131 58/88/132 52/89/133 51/90/134
f 52/91/135 58/85/136 56/84/137 54/92/138
f 57/93/139 51/94/140 53/95/141 55/96/142
f 67/97/143 68/98/144 69/99/145 70/100/146
f 59/101/147 60/102/148 62/103/149 61/104/150
f 61/105/151 62/106/152 56/107/153 55/108/154
f 54/109/155 56/107/156 62/106/157 60/110/158
f 55/111/159 53/112/160 59/113/161 61/114/162
f 51/94/163 52/91/164 64/80/165 63/79/166
f 52/91/167 54/92/168 65/81/169 64/80/170
f 54/92/171 53/95/172 66/82/173 65/81/174
f 53/95/175 51/94/176 63/79/177 66/82/178
f 53/112/179 54/109/180 68/98/181 67/97/182
f 54/109/183 60/110/184 69/99/185 68/98/186
f 60/110/187 59/113/188 70/100/189 69/99/190
f 59/113/191 53/112/192 67/97/193 70/100/194
